%TF.GenerationSoftware,KiCad,Pcbnew,9.0.7*%
%TF.CreationDate,2026-05-16T09:32:26+05:30*%
%TF.ProjectId,priyaa_1,70726979-6161-45f3-912e-6b696361645f,rev?*%
%TF.SameCoordinates,Original*%
%TF.FileFunction,Copper,L2,Bot*%
%TF.FilePolarity,Positive*%
%FSLAX46Y46*%
G04 Gerber Fmt 4.6, Leading zero omitted, Abs format (unit mm)*
G04 Created by KiCad (PCBNEW 9.0.7) date 2026-05-16 09:32:26*
%MOMM*%
%LPD*%
G01*
G04 APERTURE LIST*
G04 Aperture macros list*
%AMRoundRect*
0 Rectangle with rounded corners*
0 $1 Rounding radius*
0 $2 $3 $4 $5 $6 $7 $8 $9 X,Y pos of 4 corners*
0 Add a 4 corners polygon primitive as box body*
4,1,4,$2,$3,$4,$5,$6,$7,$8,$9,$2,$3,0*
0 Add four circle primitives for the rounded corners*
1,1,$1+$1,$2,$3*
1,1,$1+$1,$4,$5*
1,1,$1+$1,$6,$7*
1,1,$1+$1,$8,$9*
0 Add four rect primitives between the rounded corners*
20,1,$1+$1,$2,$3,$4,$5,0*
20,1,$1+$1,$4,$5,$6,$7,0*
20,1,$1+$1,$6,$7,$8,$9,0*
20,1,$1+$1,$8,$9,$2,$3,0*%
G04 Aperture macros list end*
%TA.AperFunction,ComponentPad*%
%ADD10RoundRect,0.250001X-1.149999X1.149999X-1.149999X-1.149999X1.149999X-1.149999X1.149999X1.149999X0*%
%TD*%
%TA.AperFunction,ComponentPad*%
%ADD11C,2.800000*%
%TD*%
%TA.AperFunction,ComponentPad*%
%ADD12C,1.600000*%
%TD*%
%TA.AperFunction,ComponentPad*%
%ADD13RoundRect,0.249999X-0.850001X0.850001X-0.850001X-0.850001X0.850001X-0.850001X0.850001X0.850001X0*%
%TD*%
%TA.AperFunction,ComponentPad*%
%ADD14C,2.200000*%
%TD*%
%TA.AperFunction,ComponentPad*%
%ADD15RoundRect,0.250000X-0.750000X0.750000X-0.750000X-0.750000X0.750000X-0.750000X0.750000X0.750000X0*%
%TD*%
%TA.AperFunction,ComponentPad*%
%ADD16C,2.000000*%
%TD*%
%TA.AperFunction,ComponentPad*%
%ADD17R,1.800000X1.800000*%
%TD*%
%TA.AperFunction,ComponentPad*%
%ADD18C,1.800000*%
%TD*%
%TA.AperFunction,ComponentPad*%
%ADD19RoundRect,0.250000X0.750000X0.750000X-0.750000X0.750000X-0.750000X-0.750000X0.750000X-0.750000X0*%
%TD*%
%TA.AperFunction,ComponentPad*%
%ADD20R,1.905000X2.000000*%
%TD*%
%TA.AperFunction,ComponentPad*%
%ADD21O,1.905000X2.000000*%
%TD*%
%TA.AperFunction,ComponentPad*%
%ADD22RoundRect,0.250000X-0.650000X0.650000X-0.650000X-0.650000X0.650000X-0.650000X0.650000X0.650000X0*%
%TD*%
%TA.AperFunction,ComponentPad*%
%ADD23C,2.400000*%
%TD*%
%TA.AperFunction,Conductor*%
%ADD24C,0.200000*%
%TD*%
G04 APERTURE END LIST*
D10*
%TO.P,J1,1,Pin_1*%
%TO.N,Net-(D3-A)*%
X57500000Y-61000000D03*
D11*
%TO.P,J1,2,Pin_2*%
%TO.N,Net-(J1-Pin_2)*%
X57500000Y-66000000D03*
%TD*%
D12*
%TO.P,R1,1*%
%TO.N,Net-(D5-A)*%
X96000000Y-76000000D03*
%TO.P,R1,2*%
%TO.N,GND*%
X88380000Y-76000000D03*
%TD*%
D13*
%TO.P,D1,1,K*%
%TO.N,Net-(D1-K)*%
X67000000Y-58500000D03*
D14*
%TO.P,D1,2,A*%
%TO.N,Net-(D1-A)*%
X67000000Y-68660000D03*
%TD*%
D10*
%TO.P,J2,1,Pin_1*%
%TO.N,/5V*%
X106000000Y-70500000D03*
D11*
%TO.P,J2,2,Pin_2*%
%TO.N,GND*%
X106000000Y-75500000D03*
%TD*%
D15*
%TO.P,C2,1*%
%TO.N,Net-(D1-K)*%
X87000000Y-61632323D03*
D16*
%TO.P,C2,2*%
%TO.N,GND*%
X87000000Y-66632323D03*
%TD*%
D17*
%TO.P,D7,1,K*%
%TO.N,GND*%
X61225000Y-75000000D03*
D18*
%TO.P,D7,2,A*%
%TO.N,Net-(D7-A)*%
X63765000Y-75000000D03*
%TD*%
D13*
%TO.P,D3,1,K*%
%TO.N,Net-(D1-K)*%
X75500000Y-59000000D03*
D14*
%TO.P,D3,2,A*%
%TO.N,Net-(D3-A)*%
X75500000Y-69160000D03*
%TD*%
D19*
%TO.P,C3,1*%
%TO.N,/5V*%
X107800000Y-54500000D03*
D16*
%TO.P,C3,2*%
%TO.N,GND*%
X104000000Y-54500000D03*
%TD*%
D13*
%TO.P,D4,1,K*%
%TO.N,Net-(D3-A)*%
X81000000Y-74500000D03*
D14*
%TO.P,D4,2,A*%
%TO.N,GND*%
X81000000Y-84660000D03*
%TD*%
D12*
%TO.P,C1,1*%
%TO.N,Net-(D1-K)*%
X84500000Y-53500000D03*
%TO.P,C1,2*%
%TO.N,GND*%
X89500000Y-53500000D03*
%TD*%
D20*
%TO.P,U1,1,VI*%
%TO.N,Net-(D1-K)*%
X89420000Y-45000000D03*
D21*
%TO.P,U1,2,GND*%
%TO.N,GND*%
X91960000Y-45000000D03*
%TO.P,U1,3,VO*%
%TO.N,/5V*%
X94500000Y-45000000D03*
%TD*%
D12*
%TO.P,R4,1*%
%TO.N,Net-(D1-K)*%
X65000000Y-84000000D03*
%TO.P,R4,2*%
%TO.N,Net-(D7-A)*%
X57380000Y-84000000D03*
%TD*%
D22*
%TO.P,D6,1,K*%
%TO.N,Net-(D1-K)*%
X96500000Y-64500000D03*
D18*
%TO.P,D6,2,A*%
%TO.N,Net-(D6-A)*%
X96500000Y-72120000D03*
%TD*%
D13*
%TO.P,D2,1,K*%
%TO.N,Net-(D1-A)*%
X73000000Y-75500000D03*
D14*
%TO.P,D2,2,A*%
%TO.N,GND*%
X73000000Y-85660000D03*
%TD*%
D12*
%TO.P,R2,1*%
%TO.N,Net-(D6-A)*%
X96000000Y-82000000D03*
%TO.P,R2,2*%
%TO.N,GND*%
X88380000Y-82000000D03*
%TD*%
%TO.P,R3,1*%
%TO.N,Net-(J1-Pin_2)*%
X55000000Y-43690000D03*
%TO.P,R3,2*%
%TO.N,Net-(D1-A)*%
X55000000Y-51310000D03*
%TD*%
D23*
%TO.P,C4,1*%
%TO.N,Net-(J1-Pin_2)*%
X63000000Y-47000000D03*
%TO.P,C4,2*%
%TO.N,Net-(D1-A)*%
X78000000Y-47000000D03*
%TD*%
D22*
%TO.P,D5,1,K*%
%TO.N,Net-(D1-K)*%
X95500000Y-51000000D03*
D18*
%TO.P,D5,2,A*%
%TO.N,Net-(D5-A)*%
X95500000Y-58620000D03*
%TD*%
D24*
%TO.N,GND*%
X95420000Y-54500000D02*
X91960000Y-51040000D01*
X94000000Y-76000000D02*
X88380000Y-76000000D01*
X89500000Y-53500000D02*
X89500000Y-57831323D01*
X85699000Y-62617483D02*
X86014840Y-62933323D01*
X85699000Y-60647163D02*
X85699000Y-62617483D01*
X58000000Y-71000000D02*
X67000000Y-71000000D01*
X67000000Y-79660000D02*
X73000000Y-85660000D01*
X61225000Y-75000000D02*
X58500000Y-75000000D01*
X67000000Y-71000000D02*
X67000000Y-79660000D01*
X86014840Y-62933323D02*
X87000000Y-62933323D01*
X86014840Y-60331323D02*
X85699000Y-60647163D01*
X95101000Y-77101000D02*
X94000000Y-76000000D01*
X104000000Y-54500000D02*
X95420000Y-54500000D01*
X87000000Y-60331323D02*
X86014840Y-60331323D01*
X106000000Y-75500000D02*
X104399000Y-77101000D01*
X91960000Y-51040000D02*
X89500000Y-53500000D01*
X56500000Y-73000000D02*
X56500000Y-72500000D01*
X89500000Y-57831323D02*
X87000000Y-60331323D01*
X104399000Y-77101000D02*
X95101000Y-77101000D01*
X91960000Y-45000000D02*
X91960000Y-51040000D01*
X56500000Y-72500000D02*
X58000000Y-71000000D01*
X58500000Y-75000000D02*
X56500000Y-73000000D01*
X106000000Y-75500000D02*
X105399000Y-74899000D01*
%TO.N,/5V*%
X107800000Y-54500000D02*
X107800000Y-54800000D01*
X107800000Y-54800000D02*
X106000000Y-56600000D01*
X98300000Y-45000000D02*
X94500000Y-45000000D01*
X106000000Y-56600000D02*
X106000000Y-70500000D01*
X107800000Y-54500000D02*
X98300000Y-45000000D01*
%TO.N,Net-(J1-Pin_2)*%
X53500000Y-70000000D02*
X57500000Y-66000000D01*
X51500000Y-58500000D02*
X51500000Y-70000000D01*
X63000000Y-47000000D02*
X51500000Y-58500000D01*
X51500000Y-70000000D02*
X53500000Y-70000000D01*
%TO.N,Net-(D1-A)*%
X74000000Y-75500000D02*
X73000000Y-75500000D01*
X67000000Y-68660000D02*
X73000000Y-74660000D01*
X73000000Y-74660000D02*
X73000000Y-75500000D01*
X67000000Y-68660000D02*
X69840000Y-71500000D01*
%TO.N,Net-(D3-A)*%
X57500000Y-61000000D02*
X67340000Y-61000000D01*
X67340000Y-61000000D02*
X75500000Y-69160000D01*
%TO.N,Net-(D5-A)*%
X101500000Y-66500000D02*
X101500000Y-65500000D01*
X103000000Y-64000000D02*
X103000000Y-61500000D01*
X100120000Y-58620000D02*
X95500000Y-58620000D01*
X100500000Y-73500000D02*
X100500000Y-67500000D01*
X96000000Y-73500000D02*
X100500000Y-73500000D01*
X96000000Y-76000000D02*
X96000000Y-73500000D01*
X103000000Y-61500000D02*
X100120000Y-58620000D01*
X100500000Y-67500000D02*
X101500000Y-66500000D01*
X101500000Y-65500000D02*
X103000000Y-64000000D01*
%TO.N,Net-(D7-A)*%
X57380000Y-81385000D02*
X63765000Y-75000000D01*
X57380000Y-84000000D02*
X57380000Y-81385000D01*
%TD*%
%TA.AperFunction,Conductor*%
%TO.N,GND*%
G36*
X107903896Y-40020185D02*
G01*
X107949651Y-40072989D01*
X107959595Y-40142147D01*
X107933804Y-40201813D01*
X107764645Y-40413932D01*
X107601116Y-40674187D01*
X107467760Y-40951103D01*
X107467754Y-40951117D01*
X107366244Y-41241215D01*
X107366240Y-41241227D01*
X107297846Y-41540882D01*
X107297844Y-41540898D01*
X107263432Y-41846313D01*
X107263432Y-42153686D01*
X107297844Y-42459101D01*
X107297846Y-42459117D01*
X107366240Y-42758772D01*
X107366244Y-42758784D01*
X107467754Y-43048882D01*
X107467760Y-43048896D01*
X107601116Y-43325812D01*
X107601118Y-43325815D01*
X107764646Y-43586069D01*
X107956284Y-43826376D01*
X108173624Y-44043716D01*
X108413931Y-44235354D01*
X108674185Y-44398882D01*
X108951111Y-44532243D01*
X108965332Y-44537219D01*
X109241215Y-44633755D01*
X109241227Y-44633759D01*
X109540886Y-44702154D01*
X109846314Y-44736567D01*
X109846315Y-44736568D01*
X109846318Y-44736568D01*
X110153685Y-44736568D01*
X110153685Y-44736567D01*
X110459114Y-44702154D01*
X110758773Y-44633759D01*
X111048889Y-44532243D01*
X111325815Y-44398882D01*
X111586069Y-44235354D01*
X111826376Y-44043716D01*
X112043716Y-43826376D01*
X112235354Y-43586069D01*
X112270506Y-43530125D01*
X112322840Y-43483833D01*
X112391893Y-43473184D01*
X112455742Y-43501559D01*
X112494114Y-43559948D01*
X112499500Y-43596096D01*
X112499500Y-83903903D01*
X112479815Y-83970942D01*
X112427011Y-84016697D01*
X112357853Y-84026641D01*
X112294297Y-83997616D01*
X112270506Y-83969875D01*
X112261965Y-83956283D01*
X112235354Y-83913931D01*
X112043716Y-83673624D01*
X111826376Y-83456284D01*
X111586069Y-83264646D01*
X111403843Y-83150146D01*
X111325812Y-83101116D01*
X111048896Y-82967760D01*
X111048882Y-82967754D01*
X110758784Y-82866244D01*
X110758772Y-82866240D01*
X110459117Y-82797846D01*
X110459101Y-82797844D01*
X110153686Y-82763432D01*
X110153682Y-82763432D01*
X109846318Y-82763432D01*
X109846313Y-82763432D01*
X109540898Y-82797844D01*
X109540882Y-82797846D01*
X109241227Y-82866240D01*
X109241215Y-82866244D01*
X108951117Y-82967754D01*
X108951103Y-82967760D01*
X108674187Y-83101116D01*
X108413932Y-83264645D01*
X108173624Y-83456283D01*
X107956283Y-83673624D01*
X107764645Y-83913932D01*
X107601116Y-84174187D01*
X107467760Y-84451103D01*
X107467754Y-84451117D01*
X107366244Y-84741215D01*
X107366240Y-84741227D01*
X107297846Y-85040882D01*
X107297844Y-85040898D01*
X107263432Y-85346313D01*
X107263432Y-85653686D01*
X107297844Y-85959101D01*
X107297846Y-85959117D01*
X107366240Y-86258772D01*
X107366244Y-86258784D01*
X107467754Y-86548882D01*
X107467760Y-86548896D01*
X107601116Y-86825812D01*
X107601118Y-86825815D01*
X107764646Y-87086069D01*
X107811115Y-87144339D01*
X107955836Y-87325815D01*
X107956284Y-87326376D01*
X108173624Y-87543716D01*
X108413931Y-87735354D01*
X108674185Y-87898882D01*
X108951111Y-88032243D01*
X108951117Y-88032245D01*
X109241215Y-88133755D01*
X109241227Y-88133759D01*
X109540886Y-88202154D01*
X109846314Y-88236567D01*
X109846315Y-88236568D01*
X109846318Y-88236568D01*
X110153685Y-88236568D01*
X110153685Y-88236567D01*
X110459114Y-88202154D01*
X110758773Y-88133759D01*
X111048889Y-88032243D01*
X111325815Y-87898882D01*
X111586069Y-87735354D01*
X111826376Y-87543716D01*
X112043716Y-87326376D01*
X112235354Y-87086069D01*
X112270506Y-87030125D01*
X112322840Y-86983833D01*
X112391893Y-86973184D01*
X112455742Y-87001559D01*
X112494114Y-87059948D01*
X112499500Y-87096096D01*
X112499500Y-88375500D01*
X112479815Y-88442539D01*
X112427011Y-88488294D01*
X112375500Y-88499500D01*
X52596097Y-88499500D01*
X52529058Y-88479815D01*
X52483303Y-88427011D01*
X52473359Y-88357853D01*
X52502384Y-88294297D01*
X52530125Y-88270506D01*
X52535972Y-88266831D01*
X52586069Y-88235354D01*
X52826376Y-88043716D01*
X53043716Y-87826376D01*
X53235354Y-87586069D01*
X53398882Y-87325815D01*
X53532243Y-87048889D01*
X53633759Y-86758773D01*
X53702154Y-86459114D01*
X53736568Y-86153682D01*
X53736568Y-85846318D01*
X53723734Y-85732409D01*
X53702404Y-85543098D01*
X53702403Y-85543094D01*
X53702333Y-85542480D01*
X53702154Y-85540886D01*
X53700599Y-85534071D01*
X71400000Y-85534071D01*
X71400000Y-85785928D01*
X71439397Y-86034669D01*
X71517219Y-86274184D01*
X71631557Y-86498583D01*
X71705748Y-86600697D01*
X71705748Y-86600698D01*
X72476212Y-85830233D01*
X72487482Y-85872292D01*
X72559890Y-85997708D01*
X72662292Y-86100110D01*
X72787708Y-86172518D01*
X72829765Y-86183787D01*
X72059300Y-86954250D01*
X72161416Y-87028442D01*
X72385815Y-87142780D01*
X72625330Y-87220602D01*
X72874072Y-87260000D01*
X73125928Y-87260000D01*
X73374669Y-87220602D01*
X73614184Y-87142780D01*
X73838575Y-87028446D01*
X73838581Y-87028442D01*
X73940697Y-86954250D01*
X73940698Y-86954250D01*
X73170234Y-86183787D01*
X73212292Y-86172518D01*
X73337708Y-86100110D01*
X73440110Y-85997708D01*
X73512518Y-85872292D01*
X73523787Y-85830235D01*
X74294250Y-86600698D01*
X74294250Y-86600697D01*
X74368442Y-86498581D01*
X74368446Y-86498575D01*
X74482780Y-86274184D01*
X74560602Y-86034669D01*
X74583898Y-85887593D01*
X74600000Y-85785928D01*
X74600000Y-85534071D01*
X74560602Y-85285330D01*
X74482780Y-85045815D01*
X74368442Y-84821416D01*
X74294250Y-84719301D01*
X74294250Y-84719300D01*
X73523787Y-85489764D01*
X73512518Y-85447708D01*
X73440110Y-85322292D01*
X73337708Y-85219890D01*
X73212292Y-85147482D01*
X73170233Y-85136212D01*
X73772376Y-84534071D01*
X79400000Y-84534071D01*
X79400000Y-84785928D01*
X79439397Y-85034669D01*
X79517219Y-85274184D01*
X79631557Y-85498583D01*
X79705748Y-85600697D01*
X79705748Y-85600698D01*
X80476212Y-84830234D01*
X80487482Y-84872292D01*
X80559890Y-84997708D01*
X80662292Y-85100110D01*
X80787708Y-85172518D01*
X80829765Y-85183787D01*
X80059300Y-85954250D01*
X80161416Y-86028442D01*
X80385815Y-86142780D01*
X80625330Y-86220602D01*
X80874072Y-86260000D01*
X81125928Y-86260000D01*
X81374669Y-86220602D01*
X81614184Y-86142780D01*
X81838575Y-86028446D01*
X81838581Y-86028442D01*
X81940697Y-85954250D01*
X81940698Y-85954250D01*
X81170234Y-85183787D01*
X81212292Y-85172518D01*
X81337708Y-85100110D01*
X81440110Y-84997708D01*
X81512518Y-84872292D01*
X81523787Y-84830235D01*
X82294250Y-85600698D01*
X82294250Y-85600697D01*
X82368442Y-85498581D01*
X82368446Y-85498575D01*
X82482780Y-85274184D01*
X82560602Y-85034669D01*
X82600000Y-84785928D01*
X82600000Y-84534071D01*
X82560602Y-84285330D01*
X82482780Y-84045815D01*
X82368442Y-83821416D01*
X82294250Y-83719301D01*
X82294250Y-83719300D01*
X81523787Y-84489764D01*
X81512518Y-84447708D01*
X81440110Y-84322292D01*
X81337708Y-84219890D01*
X81212292Y-84147482D01*
X81170232Y-84136212D01*
X81940698Y-83365748D01*
X81838583Y-83291557D01*
X81614184Y-83177219D01*
X81530860Y-83150146D01*
X81374669Y-83099397D01*
X81125928Y-83060000D01*
X80874072Y-83060000D01*
X80625330Y-83099397D01*
X80385815Y-83177219D01*
X80161413Y-83291559D01*
X80059301Y-83365747D01*
X80059300Y-83365748D01*
X80829765Y-84136212D01*
X80787708Y-84147482D01*
X80662292Y-84219890D01*
X80559890Y-84322292D01*
X80487482Y-84447708D01*
X80476212Y-84489765D01*
X79705748Y-83719300D01*
X79705747Y-83719301D01*
X79631559Y-83821413D01*
X79517219Y-84045815D01*
X79439397Y-84285330D01*
X79400000Y-84534071D01*
X73772376Y-84534071D01*
X73864923Y-84441524D01*
X73940698Y-84365748D01*
X73838583Y-84291557D01*
X73614184Y-84177219D01*
X73374669Y-84099397D01*
X73125928Y-84060000D01*
X72874072Y-84060000D01*
X72625330Y-84099397D01*
X72385815Y-84177219D01*
X72161413Y-84291559D01*
X72059301Y-84365747D01*
X72059300Y-84365748D01*
X72829765Y-85136212D01*
X72787708Y-85147482D01*
X72662292Y-85219890D01*
X72559890Y-85322292D01*
X72487482Y-85447708D01*
X72476212Y-85489765D01*
X71705748Y-84719300D01*
X71705747Y-84719301D01*
X71631559Y-84821413D01*
X71517219Y-85045815D01*
X71439397Y-85285330D01*
X71400000Y-85534071D01*
X53700599Y-85534071D01*
X53633759Y-85241227D01*
X53532243Y-84951111D01*
X53398882Y-84674185D01*
X53235354Y-84413931D01*
X53043716Y-84173624D01*
X52826376Y-83956284D01*
X52752849Y-83897648D01*
X56079500Y-83897648D01*
X56079500Y-84102351D01*
X56111522Y-84304534D01*
X56174781Y-84499223D01*
X56267715Y-84681613D01*
X56388028Y-84847213D01*
X56532786Y-84991971D01*
X56681630Y-85100110D01*
X56698390Y-85112287D01*
X56814607Y-85171503D01*
X56880776Y-85205218D01*
X56880778Y-85205218D01*
X56880781Y-85205220D01*
X56925931Y-85219890D01*
X57075465Y-85268477D01*
X57176557Y-85284488D01*
X57277648Y-85300500D01*
X57277649Y-85300500D01*
X57482351Y-85300500D01*
X57482352Y-85300500D01*
X57684534Y-85268477D01*
X57879219Y-85205220D01*
X58061610Y-85112287D01*
X58159891Y-85040882D01*
X58227213Y-84991971D01*
X58227215Y-84991968D01*
X58227219Y-84991966D01*
X58371966Y-84847219D01*
X58371968Y-84847215D01*
X58371971Y-84847213D01*
X58448973Y-84741227D01*
X58492287Y-84681610D01*
X58585220Y-84499219D01*
X58648477Y-84304534D01*
X58680500Y-84102352D01*
X58680500Y-83897648D01*
X63699500Y-83897648D01*
X63699500Y-84102351D01*
X63731522Y-84304534D01*
X63794781Y-84499223D01*
X63887715Y-84681613D01*
X64008028Y-84847213D01*
X64152786Y-84991971D01*
X64301630Y-85100110D01*
X64318390Y-85112287D01*
X64434607Y-85171503D01*
X64500776Y-85205218D01*
X64500778Y-85205218D01*
X64500781Y-85205220D01*
X64545931Y-85219890D01*
X64695465Y-85268477D01*
X64796557Y-85284488D01*
X64897648Y-85300500D01*
X64897649Y-85300500D01*
X65102351Y-85300500D01*
X65102352Y-85300500D01*
X65304534Y-85268477D01*
X65499219Y-85205220D01*
X65681610Y-85112287D01*
X65779891Y-85040882D01*
X65847213Y-84991971D01*
X65847215Y-84991968D01*
X65847219Y-84991966D01*
X65991966Y-84847219D01*
X65991968Y-84847215D01*
X65991971Y-84847213D01*
X66068973Y-84741227D01*
X66112287Y-84681610D01*
X66205220Y-84499219D01*
X66268477Y-84304534D01*
X66300500Y-84102352D01*
X66300500Y-83897648D01*
X66268477Y-83695466D01*
X66205220Y-83500781D01*
X66205217Y-83500777D01*
X66205217Y-83500774D01*
X66189182Y-83469304D01*
X66189181Y-83469303D01*
X66188392Y-83467754D01*
X66112287Y-83318390D01*
X66112285Y-83318387D01*
X66112284Y-83318385D01*
X65991971Y-83152786D01*
X65847213Y-83008028D01*
X65681613Y-82887715D01*
X65681612Y-82887714D01*
X65681610Y-82887713D01*
X65624653Y-82858691D01*
X65499223Y-82794781D01*
X65304534Y-82731522D01*
X65129995Y-82703878D01*
X65102352Y-82699500D01*
X64897648Y-82699500D01*
X64873329Y-82703351D01*
X64695465Y-82731522D01*
X64500776Y-82794781D01*
X64318386Y-82887715D01*
X64152786Y-83008028D01*
X64008028Y-83152786D01*
X63887715Y-83318386D01*
X63794781Y-83500776D01*
X63731522Y-83695465D01*
X63699500Y-83897648D01*
X58680500Y-83897648D01*
X58648477Y-83695466D01*
X58585220Y-83500781D01*
X58585218Y-83500778D01*
X58585218Y-83500776D01*
X58551503Y-83434607D01*
X58492287Y-83318390D01*
X58472792Y-83291557D01*
X58371971Y-83152786D01*
X58227213Y-83008028D01*
X58061610Y-82887712D01*
X58048200Y-82880879D01*
X57997406Y-82832903D01*
X57980500Y-82770397D01*
X57980500Y-81897682D01*
X87080000Y-81897682D01*
X87080000Y-82102317D01*
X87112009Y-82304417D01*
X87175244Y-82499031D01*
X87268141Y-82681350D01*
X87268147Y-82681359D01*
X87300523Y-82725921D01*
X87300524Y-82725922D01*
X87980000Y-82046446D01*
X87980000Y-82052661D01*
X88007259Y-82154394D01*
X88059920Y-82245606D01*
X88134394Y-82320080D01*
X88225606Y-82372741D01*
X88327339Y-82400000D01*
X88333553Y-82400000D01*
X87654076Y-83079474D01*
X87698650Y-83111859D01*
X87880968Y-83204755D01*
X88075582Y-83267990D01*
X88277683Y-83300000D01*
X88482317Y-83300000D01*
X88684417Y-83267990D01*
X88879031Y-83204755D01*
X89061349Y-83111859D01*
X89105921Y-83079474D01*
X88426447Y-82400000D01*
X88432661Y-82400000D01*
X88534394Y-82372741D01*
X88625606Y-82320080D01*
X88700080Y-82245606D01*
X88752741Y-82154394D01*
X88780000Y-82052661D01*
X88780000Y-82046447D01*
X89459474Y-82725921D01*
X89491859Y-82681349D01*
X89584755Y-82499031D01*
X89647990Y-82304417D01*
X89680000Y-82102317D01*
X89680000Y-81897682D01*
X89679995Y-81897648D01*
X94699500Y-81897648D01*
X94699500Y-82102351D01*
X94731522Y-82304534D01*
X94794781Y-82499223D01*
X94858691Y-82624653D01*
X94887585Y-82681359D01*
X94887715Y-82681613D01*
X95008028Y-82847213D01*
X95152786Y-82991971D01*
X95273226Y-83079474D01*
X95318390Y-83112287D01*
X95397864Y-83152781D01*
X95500776Y-83205218D01*
X95500778Y-83205218D01*
X95500781Y-83205220D01*
X95605137Y-83239127D01*
X95695465Y-83268477D01*
X95796557Y-83284488D01*
X95897648Y-83300500D01*
X95897649Y-83300500D01*
X96102351Y-83300500D01*
X96102352Y-83300500D01*
X96304534Y-83268477D01*
X96499219Y-83205220D01*
X96681610Y-83112287D01*
X96774590Y-83044732D01*
X96847213Y-82991971D01*
X96847215Y-82991968D01*
X96847219Y-82991966D01*
X96991966Y-82847219D01*
X96991968Y-82847215D01*
X96991971Y-82847213D01*
X97076024Y-82731522D01*
X97112287Y-82681610D01*
X97205220Y-82499219D01*
X97268477Y-82304534D01*
X97300500Y-82102352D01*
X97300500Y-81897648D01*
X97292257Y-81845606D01*
X97268477Y-81695465D01*
X97236619Y-81597416D01*
X97205220Y-81500781D01*
X97205218Y-81500778D01*
X97205218Y-81500776D01*
X97112419Y-81318650D01*
X97112287Y-81318390D01*
X97080092Y-81274077D01*
X96991971Y-81152786D01*
X96847213Y-81008028D01*
X96681613Y-80887715D01*
X96681612Y-80887714D01*
X96681610Y-80887713D01*
X96624653Y-80858691D01*
X96499223Y-80794781D01*
X96304534Y-80731522D01*
X96129995Y-80703878D01*
X96102352Y-80699500D01*
X95897648Y-80699500D01*
X95873329Y-80703351D01*
X95695465Y-80731522D01*
X95500776Y-80794781D01*
X95318386Y-80887715D01*
X95152786Y-81008028D01*
X95008028Y-81152786D01*
X94887715Y-81318386D01*
X94794781Y-81500776D01*
X94731522Y-81695465D01*
X94699500Y-81897648D01*
X89679995Y-81897648D01*
X89647990Y-81695582D01*
X89584755Y-81500968D01*
X89491859Y-81318650D01*
X89459474Y-81274077D01*
X89459474Y-81274076D01*
X88780000Y-81953551D01*
X88780000Y-81947339D01*
X88752741Y-81845606D01*
X88700080Y-81754394D01*
X88625606Y-81679920D01*
X88534394Y-81627259D01*
X88432661Y-81600000D01*
X88426446Y-81600000D01*
X89105922Y-80920524D01*
X89105921Y-80920523D01*
X89061359Y-80888147D01*
X89061350Y-80888141D01*
X88879031Y-80795244D01*
X88684417Y-80732009D01*
X88482317Y-80700000D01*
X88277683Y-80700000D01*
X88075582Y-80732009D01*
X87880968Y-80795244D01*
X87698644Y-80888143D01*
X87654077Y-80920523D01*
X87654077Y-80920524D01*
X88333554Y-81600000D01*
X88327339Y-81600000D01*
X88225606Y-81627259D01*
X88134394Y-81679920D01*
X88059920Y-81754394D01*
X88007259Y-81845606D01*
X87980000Y-81947339D01*
X87980000Y-81953553D01*
X87300524Y-81274077D01*
X87300523Y-81274077D01*
X87268143Y-81318644D01*
X87175244Y-81500968D01*
X87112009Y-81695582D01*
X87080000Y-81897682D01*
X57980500Y-81897682D01*
X57980500Y-81685097D01*
X58000185Y-81618058D01*
X58016819Y-81597416D01*
X58734133Y-80880102D01*
X58914735Y-80699500D01*
X63240798Y-76373436D01*
X63302119Y-76339953D01*
X63366794Y-76343187D01*
X63398695Y-76353553D01*
X63437048Y-76366015D01*
X63545913Y-76383257D01*
X63654778Y-76400500D01*
X63654779Y-76400500D01*
X63875221Y-76400500D01*
X63875222Y-76400500D01*
X64092951Y-76366015D01*
X64302606Y-76297895D01*
X64499022Y-76197815D01*
X64677365Y-76068242D01*
X64833242Y-75912365D01*
X64962815Y-75734022D01*
X65062895Y-75537606D01*
X65131015Y-75327951D01*
X65165500Y-75110222D01*
X65165500Y-74889778D01*
X65131015Y-74672049D01*
X65096955Y-74567221D01*
X65062896Y-74462396D01*
X65062895Y-74462393D01*
X64995771Y-74330658D01*
X64962815Y-74265978D01*
X64894545Y-74172012D01*
X64833247Y-74087641D01*
X64833243Y-74087636D01*
X64677363Y-73931756D01*
X64677358Y-73931752D01*
X64499025Y-73802187D01*
X64499024Y-73802186D01*
X64499022Y-73802185D01*
X64436096Y-73770122D01*
X64302606Y-73702104D01*
X64302603Y-73702103D01*
X64092952Y-73633985D01*
X63984086Y-73616742D01*
X63875222Y-73599500D01*
X63654778Y-73599500D01*
X63582201Y-73610995D01*
X63437047Y-73633985D01*
X63227396Y-73702103D01*
X63227393Y-73702104D01*
X63030974Y-73802187D01*
X62852641Y-73931752D01*
X62852636Y-73931756D01*
X62802075Y-73982317D01*
X62740752Y-74015801D01*
X62671060Y-74010816D01*
X62615127Y-73968945D01*
X62598213Y-73937968D01*
X62568354Y-73857913D01*
X62568350Y-73857906D01*
X62482190Y-73742812D01*
X62482187Y-73742809D01*
X62367093Y-73656649D01*
X62367086Y-73656645D01*
X62232379Y-73606403D01*
X62232372Y-73606401D01*
X62172844Y-73600000D01*
X61475000Y-73600000D01*
X61475000Y-74624722D01*
X61398694Y-74580667D01*
X61284244Y-74550000D01*
X61165756Y-74550000D01*
X61051306Y-74580667D01*
X60975000Y-74624722D01*
X60975000Y-73600000D01*
X60277155Y-73600000D01*
X60217627Y-73606401D01*
X60217620Y-73606403D01*
X60082913Y-73656645D01*
X60082906Y-73656649D01*
X59967812Y-73742809D01*
X59967809Y-73742812D01*
X59881649Y-73857906D01*
X59881645Y-73857913D01*
X59831403Y-73992620D01*
X59831401Y-73992627D01*
X59825000Y-74052155D01*
X59825000Y-74750000D01*
X60849722Y-74750000D01*
X60805667Y-74826306D01*
X60775000Y-74940756D01*
X60775000Y-75059244D01*
X60805667Y-75173694D01*
X60849722Y-75250000D01*
X59825000Y-75250000D01*
X59825000Y-75947844D01*
X59831401Y-76007372D01*
X59831403Y-76007379D01*
X59881645Y-76142086D01*
X59881649Y-76142093D01*
X59967809Y-76257187D01*
X59967812Y-76257190D01*
X60082906Y-76343350D01*
X60082913Y-76343354D01*
X60217620Y-76393596D01*
X60217627Y-76393598D01*
X60277155Y-76399999D01*
X60277172Y-76400000D01*
X60975000Y-76400000D01*
X60975000Y-75375277D01*
X61051306Y-75419333D01*
X61165756Y-75450000D01*
X61284244Y-75450000D01*
X61398694Y-75419333D01*
X61475000Y-75375277D01*
X61475000Y-76389401D01*
X61455315Y-76456440D01*
X61438681Y-76477082D01*
X57011286Y-80904478D01*
X56899481Y-81016282D01*
X56899475Y-81016290D01*
X56851436Y-81099498D01*
X56851436Y-81099499D01*
X56820423Y-81153214D01*
X56820423Y-81153215D01*
X56779499Y-81305943D01*
X56779499Y-81305945D01*
X56779499Y-81474046D01*
X56779500Y-81474059D01*
X56779500Y-82770397D01*
X56759815Y-82837436D01*
X56711800Y-82880879D01*
X56698389Y-82887712D01*
X56532786Y-83008028D01*
X56388028Y-83152786D01*
X56267715Y-83318386D01*
X56174781Y-83500776D01*
X56111522Y-83695465D01*
X56079500Y-83897648D01*
X52752849Y-83897648D01*
X52586069Y-83764646D01*
X52325815Y-83601118D01*
X52325812Y-83601116D01*
X52048896Y-83467760D01*
X52048882Y-83467754D01*
X51758784Y-83366244D01*
X51758772Y-83366240D01*
X51459117Y-83297846D01*
X51459101Y-83297844D01*
X51153686Y-83263432D01*
X51153682Y-83263432D01*
X50846318Y-83263432D01*
X50846313Y-83263432D01*
X50540898Y-83297844D01*
X50540882Y-83297846D01*
X50241227Y-83366240D01*
X50241215Y-83366244D01*
X49951117Y-83467754D01*
X49951103Y-83467760D01*
X49674187Y-83601116D01*
X49413932Y-83764645D01*
X49173624Y-83956283D01*
X48956283Y-84173624D01*
X48764645Y-84413932D01*
X48729494Y-84469875D01*
X48677159Y-84516166D01*
X48608106Y-84526814D01*
X48544257Y-84498439D01*
X48505885Y-84440050D01*
X48500500Y-84403903D01*
X48500500Y-58420943D01*
X50899499Y-58420943D01*
X50899499Y-58579057D01*
X50899500Y-58579060D01*
X50899500Y-69920943D01*
X50899500Y-70079057D01*
X50937558Y-70221089D01*
X50940423Y-70231783D01*
X50940426Y-70231790D01*
X51019475Y-70368709D01*
X51019478Y-70368713D01*
X51019480Y-70368716D01*
X51131284Y-70480520D01*
X51131286Y-70480521D01*
X51131290Y-70480524D01*
X51215024Y-70528867D01*
X51268216Y-70559577D01*
X51420943Y-70600500D01*
X53413331Y-70600500D01*
X53413347Y-70600501D01*
X53420943Y-70600501D01*
X53579054Y-70600501D01*
X53579057Y-70600501D01*
X53731785Y-70559577D01*
X53784971Y-70528870D01*
X53784972Y-70528870D01*
X53868709Y-70480524D01*
X53868708Y-70480524D01*
X53868716Y-70480520D01*
X53980520Y-70368716D01*
X53980520Y-70368714D01*
X53990724Y-70358511D01*
X53990728Y-70358506D01*
X55815195Y-68534038D01*
X65399500Y-68534038D01*
X65399500Y-68785961D01*
X65438910Y-69034785D01*
X65516760Y-69274383D01*
X65631132Y-69498848D01*
X65779201Y-69702649D01*
X65779205Y-69702654D01*
X65957345Y-69880794D01*
X65957350Y-69880798D01*
X66119829Y-69998845D01*
X66161155Y-70028870D01*
X66259651Y-70079056D01*
X66385616Y-70143239D01*
X66385618Y-70143239D01*
X66385621Y-70143241D01*
X66625215Y-70221090D01*
X66874038Y-70260500D01*
X66874039Y-70260500D01*
X67125961Y-70260500D01*
X67125962Y-70260500D01*
X67374785Y-70221090D01*
X67556925Y-70161908D01*
X67626764Y-70159914D01*
X67682923Y-70192159D01*
X69478349Y-71987585D01*
X69478355Y-71987590D01*
X71531762Y-74040997D01*
X71565247Y-74102320D01*
X71560263Y-74172012D01*
X71549620Y-74193774D01*
X71465189Y-74330658D01*
X71465186Y-74330665D01*
X71410001Y-74497202D01*
X71410001Y-74497203D01*
X71410000Y-74497203D01*
X71399500Y-74599982D01*
X71399500Y-76400017D01*
X71410000Y-76502796D01*
X71410001Y-76502798D01*
X71465186Y-76669335D01*
X71557288Y-76818656D01*
X71681344Y-76942712D01*
X71830665Y-77034814D01*
X71997202Y-77089999D01*
X72099990Y-77100500D01*
X72099995Y-77100500D01*
X73900005Y-77100500D01*
X73900010Y-77100500D01*
X74002798Y-77089999D01*
X74169335Y-77034814D01*
X74318656Y-76942712D01*
X74442712Y-76818656D01*
X74534814Y-76669335D01*
X74589999Y-76502798D01*
X74600500Y-76400010D01*
X74600500Y-74599990D01*
X74589999Y-74497202D01*
X74534814Y-74330665D01*
X74442712Y-74181344D01*
X74318656Y-74057288D01*
X74194202Y-73980524D01*
X74169337Y-73965187D01*
X74169332Y-73965185D01*
X74167863Y-73964698D01*
X74002798Y-73910001D01*
X74002796Y-73910000D01*
X73900017Y-73899500D01*
X73900010Y-73899500D01*
X73140097Y-73899500D01*
X73073058Y-73879815D01*
X73052416Y-73863181D01*
X72789217Y-73599982D01*
X79399500Y-73599982D01*
X79399500Y-75400017D01*
X79410000Y-75502796D01*
X79450340Y-75624533D01*
X79465186Y-75669335D01*
X79557288Y-75818656D01*
X79681344Y-75942712D01*
X79830665Y-76034814D01*
X79997202Y-76089999D01*
X80099990Y-76100500D01*
X80099995Y-76100500D01*
X81900005Y-76100500D01*
X81900010Y-76100500D01*
X82002798Y-76089999D01*
X82169335Y-76034814D01*
X82318656Y-75942712D01*
X82363686Y-75897682D01*
X87080000Y-75897682D01*
X87080000Y-76102317D01*
X87112009Y-76304417D01*
X87175244Y-76499031D01*
X87268141Y-76681350D01*
X87268147Y-76681359D01*
X87300523Y-76725921D01*
X87300524Y-76725922D01*
X87980000Y-76046446D01*
X87980000Y-76052661D01*
X88007259Y-76154394D01*
X88059920Y-76245606D01*
X88134394Y-76320080D01*
X88225606Y-76372741D01*
X88327339Y-76400000D01*
X88333553Y-76400000D01*
X87654076Y-77079474D01*
X87698650Y-77111859D01*
X87880968Y-77204755D01*
X88075582Y-77267990D01*
X88277683Y-77300000D01*
X88482317Y-77300000D01*
X88684417Y-77267990D01*
X88879031Y-77204755D01*
X89061349Y-77111859D01*
X89105921Y-77079474D01*
X88426447Y-76400000D01*
X88432661Y-76400000D01*
X88534394Y-76372741D01*
X88625606Y-76320080D01*
X88700080Y-76245606D01*
X88752741Y-76154394D01*
X88780000Y-76052661D01*
X88780000Y-76046447D01*
X89459474Y-76725921D01*
X89491859Y-76681349D01*
X89584755Y-76499031D01*
X89647990Y-76304417D01*
X89680000Y-76102317D01*
X89680000Y-75897682D01*
X89647990Y-75695582D01*
X89584755Y-75500968D01*
X89491859Y-75318650D01*
X89459474Y-75274077D01*
X89459474Y-75274076D01*
X88780000Y-75953551D01*
X88780000Y-75947339D01*
X88752741Y-75845606D01*
X88700080Y-75754394D01*
X88625606Y-75679920D01*
X88534394Y-75627259D01*
X88432661Y-75600000D01*
X88426446Y-75600000D01*
X89105922Y-74920524D01*
X89105921Y-74920523D01*
X89061359Y-74888147D01*
X89061350Y-74888141D01*
X88879031Y-74795244D01*
X88684417Y-74732009D01*
X88482317Y-74700000D01*
X88277683Y-74700000D01*
X88075582Y-74732009D01*
X87880968Y-74795244D01*
X87698644Y-74888143D01*
X87654077Y-74920523D01*
X87654077Y-74920524D01*
X88333554Y-75600000D01*
X88327339Y-75600000D01*
X88225606Y-75627259D01*
X88134394Y-75679920D01*
X88059920Y-75754394D01*
X88007259Y-75845606D01*
X87980000Y-75947339D01*
X87980000Y-75953553D01*
X87300524Y-75274077D01*
X87300523Y-75274077D01*
X87268143Y-75318644D01*
X87175244Y-75500968D01*
X87112009Y-75695582D01*
X87080000Y-75897682D01*
X82363686Y-75897682D01*
X82442712Y-75818656D01*
X82534814Y-75669335D01*
X82589999Y-75502798D01*
X82600500Y-75400010D01*
X82600500Y-73599990D01*
X82589999Y-73497202D01*
X82534814Y-73330665D01*
X82442712Y-73181344D01*
X82318656Y-73057288D01*
X82169335Y-72965186D01*
X82002798Y-72910001D01*
X82002796Y-72910000D01*
X81900017Y-72899500D01*
X81900010Y-72899500D01*
X80099990Y-72899500D01*
X80099982Y-72899500D01*
X79997203Y-72910000D01*
X79997202Y-72910001D01*
X79914669Y-72937349D01*
X79830667Y-72965185D01*
X79830662Y-72965187D01*
X79681342Y-73057289D01*
X79557289Y-73181342D01*
X79465187Y-73330662D01*
X79465186Y-73330665D01*
X79410001Y-73497202D01*
X79410001Y-73497203D01*
X79410000Y-73497203D01*
X79399500Y-73599982D01*
X72789217Y-73599982D01*
X70327590Y-71138355D01*
X70327588Y-71138352D01*
X68532159Y-69342923D01*
X68498674Y-69281600D01*
X68501908Y-69216925D01*
X68561090Y-69034785D01*
X68600500Y-68785962D01*
X68600500Y-68534038D01*
X68561090Y-68285215D01*
X68483241Y-68045621D01*
X68483239Y-68045618D01*
X68483239Y-68045616D01*
X68409297Y-67900498D01*
X68368870Y-67821155D01*
X68306290Y-67735021D01*
X68220798Y-67617350D01*
X68220794Y-67617345D01*
X68042654Y-67439205D01*
X68042649Y-67439201D01*
X67838848Y-67291132D01*
X67838847Y-67291131D01*
X67838845Y-67291130D01*
X67695508Y-67218096D01*
X67614383Y-67176760D01*
X67374785Y-67098910D01*
X67370605Y-67098248D01*
X67125962Y-67059500D01*
X66874038Y-67059500D01*
X66749626Y-67079205D01*
X66625214Y-67098910D01*
X66385616Y-67176760D01*
X66161151Y-67291132D01*
X65957350Y-67439201D01*
X65957345Y-67439205D01*
X65779205Y-67617345D01*
X65779201Y-67617350D01*
X65631132Y-67821151D01*
X65516760Y-68045616D01*
X65438910Y-68285214D01*
X65399500Y-68534038D01*
X55815195Y-68534038D01*
X56587334Y-67761899D01*
X56648655Y-67728416D01*
X56718347Y-67733400D01*
X56722455Y-67735016D01*
X56887793Y-67803502D01*
X57128435Y-67867982D01*
X57375435Y-67900500D01*
X57375442Y-67900500D01*
X57624558Y-67900500D01*
X57624565Y-67900500D01*
X57871565Y-67867982D01*
X58112207Y-67803502D01*
X58342373Y-67708164D01*
X58558127Y-67583599D01*
X58755776Y-67431938D01*
X58931938Y-67255776D01*
X59083599Y-67058127D01*
X59208164Y-66842373D01*
X59303502Y-66612207D01*
X59367982Y-66371565D01*
X59400500Y-66124565D01*
X59400500Y-65875435D01*
X59367982Y-65628435D01*
X59303502Y-65387793D01*
X59225719Y-65200008D01*
X59208169Y-65157638D01*
X59208162Y-65157623D01*
X59083599Y-64941873D01*
X58931939Y-64744225D01*
X58931933Y-64744218D01*
X58755781Y-64568066D01*
X58755774Y-64568060D01*
X58558126Y-64416400D01*
X58342376Y-64291837D01*
X58342361Y-64291830D01*
X58112207Y-64196498D01*
X57871561Y-64132017D01*
X57624575Y-64099501D01*
X57624570Y-64099500D01*
X57624565Y-64099500D01*
X57375435Y-64099500D01*
X57375429Y-64099500D01*
X57375424Y-64099501D01*
X57128438Y-64132017D01*
X56887792Y-64196498D01*
X56657638Y-64291830D01*
X56657623Y-64291837D01*
X56441873Y-64416400D01*
X56244225Y-64568060D01*
X56244218Y-64568066D01*
X56068066Y-64744218D01*
X56068060Y-64744225D01*
X55916400Y-64941873D01*
X55791837Y-65157623D01*
X55791830Y-65157638D01*
X55696498Y-65387792D01*
X55632017Y-65628438D01*
X55599501Y-65875424D01*
X55599500Y-65875441D01*
X55599500Y-66124558D01*
X55599501Y-66124575D01*
X55620961Y-66287583D01*
X55632018Y-66371565D01*
X55696498Y-66612207D01*
X55753729Y-66750375D01*
X55764978Y-66777531D01*
X55772447Y-66847001D01*
X55741172Y-66909480D01*
X55738098Y-66912665D01*
X53287584Y-69363181D01*
X53226261Y-69396666D01*
X53199903Y-69399500D01*
X52224500Y-69399500D01*
X52157461Y-69379815D01*
X52111706Y-69327011D01*
X52100500Y-69275500D01*
X52100500Y-59799984D01*
X55599500Y-59799984D01*
X55599500Y-62200015D01*
X55610000Y-62302795D01*
X55610001Y-62302796D01*
X55665186Y-62469335D01*
X55665187Y-62469337D01*
X55757286Y-62618651D01*
X55757289Y-62618655D01*
X55881344Y-62742710D01*
X55881348Y-62742713D01*
X56030662Y-62834812D01*
X56030664Y-62834813D01*
X56030666Y-62834814D01*
X56197203Y-62889999D01*
X56299992Y-62900500D01*
X56299997Y-62900500D01*
X58700003Y-62900500D01*
X58700008Y-62900500D01*
X58802797Y-62889999D01*
X58969334Y-62834814D01*
X59118655Y-62742711D01*
X59242711Y-62618655D01*
X59334814Y-62469334D01*
X59389999Y-62302797D01*
X59400500Y-62200008D01*
X59400500Y-61724500D01*
X59420185Y-61657461D01*
X59472989Y-61611706D01*
X59524500Y-61600500D01*
X67039903Y-61600500D01*
X67106942Y-61620185D01*
X67127584Y-61636819D01*
X73967840Y-68477076D01*
X74001325Y-68538399D01*
X73998090Y-68603075D01*
X73938910Y-68785210D01*
X73938910Y-68785213D01*
X73899500Y-69034038D01*
X73899500Y-69285961D01*
X73938910Y-69534785D01*
X74016760Y-69774383D01*
X74131132Y-69998848D01*
X74279201Y-70202649D01*
X74279205Y-70202654D01*
X74457345Y-70380794D01*
X74457350Y-70380798D01*
X74594604Y-70480518D01*
X74661155Y-70528870D01*
X74801735Y-70600499D01*
X74885616Y-70643239D01*
X74885618Y-70643239D01*
X74885621Y-70643241D01*
X75125215Y-70721090D01*
X75374038Y-70760500D01*
X75374039Y-70760500D01*
X75625961Y-70760500D01*
X75625962Y-70760500D01*
X75874785Y-70721090D01*
X76114379Y-70643241D01*
X76338845Y-70528870D01*
X76542656Y-70380793D01*
X76720793Y-70202656D01*
X76868870Y-69998845D01*
X76983241Y-69774379D01*
X77061090Y-69534785D01*
X77100500Y-69285962D01*
X77100500Y-69034038D01*
X77061090Y-68785215D01*
X76983241Y-68545621D01*
X76983239Y-68545618D01*
X76983239Y-68545616D01*
X76941747Y-68464184D01*
X76868870Y-68321155D01*
X76731676Y-68132323D01*
X76720798Y-68117350D01*
X76720794Y-68117345D01*
X76542654Y-67939205D01*
X76499759Y-67908040D01*
X76499757Y-67908038D01*
X76338848Y-67791132D01*
X76338847Y-67791131D01*
X76338845Y-67791130D01*
X76228725Y-67735021D01*
X76114383Y-67676760D01*
X75874785Y-67598910D01*
X75625962Y-67559500D01*
X75374038Y-67559500D01*
X75291097Y-67572636D01*
X75125213Y-67598910D01*
X75125210Y-67598910D01*
X74943075Y-67658090D01*
X74873234Y-67660085D01*
X74817076Y-67627840D01*
X73703506Y-66514270D01*
X85500000Y-66514270D01*
X85500000Y-66750375D01*
X85536934Y-66983570D01*
X85609897Y-67208125D01*
X85717087Y-67418497D01*
X85777338Y-67501427D01*
X85777340Y-67501428D01*
X86517037Y-66761731D01*
X86534075Y-66825316D01*
X86599901Y-66939330D01*
X86692993Y-67032422D01*
X86807007Y-67098248D01*
X86870590Y-67115285D01*
X86130893Y-67854981D01*
X86213828Y-67915237D01*
X86424197Y-68022425D01*
X86648752Y-68095388D01*
X86648751Y-68095388D01*
X86881948Y-68132323D01*
X87118052Y-68132323D01*
X87351247Y-68095388D01*
X87575802Y-68022425D01*
X87786163Y-67915241D01*
X87786169Y-67915237D01*
X87869104Y-67854981D01*
X87869105Y-67854981D01*
X87129408Y-67115285D01*
X87192993Y-67098248D01*
X87307007Y-67032422D01*
X87400099Y-66939330D01*
X87465925Y-66825316D01*
X87482962Y-66761732D01*
X88222658Y-67501428D01*
X88222658Y-67501427D01*
X88282914Y-67418492D01*
X88282918Y-67418486D01*
X88390102Y-67208125D01*
X88463065Y-66983570D01*
X88500000Y-66750375D01*
X88500000Y-66514270D01*
X88463065Y-66281075D01*
X88390102Y-66056520D01*
X88282914Y-65846151D01*
X88222658Y-65763217D01*
X88222658Y-65763216D01*
X87482962Y-66502913D01*
X87465925Y-66439330D01*
X87400099Y-66325316D01*
X87307007Y-66232224D01*
X87192993Y-66166398D01*
X87129409Y-66149360D01*
X87869105Y-65409663D01*
X87869104Y-65409661D01*
X87786174Y-65349410D01*
X87575802Y-65242220D01*
X87351247Y-65169257D01*
X87351248Y-65169257D01*
X87118052Y-65132323D01*
X86881948Y-65132323D01*
X86648752Y-65169257D01*
X86424197Y-65242220D01*
X86213830Y-65349407D01*
X86130894Y-65409663D01*
X86870591Y-66149360D01*
X86807007Y-66166398D01*
X86692993Y-66232224D01*
X86599901Y-66325316D01*
X86534075Y-66439330D01*
X86517037Y-66502914D01*
X85777340Y-65763217D01*
X85717084Y-65846153D01*
X85609897Y-66056520D01*
X85536934Y-66281075D01*
X85500000Y-66514270D01*
X73703506Y-66514270D01*
X71073751Y-63884515D01*
X70989219Y-63799983D01*
X95099500Y-63799983D01*
X95099500Y-65200001D01*
X95099501Y-65200006D01*
X95110000Y-65302796D01*
X95110001Y-65302799D01*
X95138166Y-65387793D01*
X95165186Y-65469334D01*
X95257288Y-65618656D01*
X95381344Y-65742712D01*
X95530666Y-65834814D01*
X95697203Y-65889999D01*
X95799991Y-65900500D01*
X97200008Y-65900499D01*
X97302797Y-65889999D01*
X97469334Y-65834814D01*
X97618656Y-65742712D01*
X97742712Y-65618656D01*
X97834814Y-65469334D01*
X97889999Y-65302797D01*
X97900500Y-65200009D01*
X97900499Y-63799992D01*
X97899231Y-63787583D01*
X97889999Y-63697203D01*
X97889998Y-63697200D01*
X97834814Y-63530666D01*
X97742712Y-63381344D01*
X97618656Y-63257288D01*
X97469334Y-63165186D01*
X97302797Y-63110001D01*
X97302795Y-63110000D01*
X97200010Y-63099500D01*
X95799998Y-63099500D01*
X95799981Y-63099501D01*
X95697203Y-63110000D01*
X95697200Y-63110001D01*
X95530668Y-63165185D01*
X95530663Y-63165187D01*
X95381342Y-63257289D01*
X95257289Y-63381342D01*
X95165187Y-63530663D01*
X95165186Y-63530666D01*
X95110001Y-63697203D01*
X95110001Y-63697204D01*
X95110000Y-63697204D01*
X95099500Y-63799983D01*
X70989219Y-63799983D01*
X68106073Y-60916838D01*
X68021541Y-60832306D01*
X85499500Y-60832306D01*
X85499500Y-62432324D01*
X85499501Y-62432341D01*
X85510000Y-62535119D01*
X85510001Y-62535122D01*
X85565185Y-62701654D01*
X85565187Y-62701659D01*
X85590508Y-62742711D01*
X85657288Y-62850979D01*
X85781344Y-62975035D01*
X85930666Y-63067137D01*
X86097203Y-63122322D01*
X86199991Y-63132823D01*
X87800008Y-63132822D01*
X87902797Y-63122322D01*
X88069334Y-63067137D01*
X88218656Y-62975035D01*
X88342712Y-62850979D01*
X88434814Y-62701657D01*
X88489999Y-62535120D01*
X88500500Y-62432332D01*
X88500499Y-60832315D01*
X88489999Y-60729526D01*
X88434814Y-60562989D01*
X88342712Y-60413667D01*
X88218656Y-60289611D01*
X88069334Y-60197509D01*
X87902797Y-60142324D01*
X87902795Y-60142323D01*
X87800010Y-60131823D01*
X86199998Y-60131823D01*
X86199981Y-60131824D01*
X86097203Y-60142323D01*
X86097200Y-60142324D01*
X85930668Y-60197508D01*
X85930663Y-60197510D01*
X85781342Y-60289612D01*
X85657289Y-60413665D01*
X85565187Y-60562986D01*
X85565186Y-60562989D01*
X85510001Y-60729526D01*
X85510001Y-60729527D01*
X85510000Y-60729527D01*
X85499500Y-60832306D01*
X68021541Y-60832306D01*
X67827590Y-60638355D01*
X67827588Y-60638352D01*
X67708717Y-60519481D01*
X67708716Y-60519480D01*
X67621904Y-60469360D01*
X67621904Y-60469359D01*
X67621900Y-60469358D01*
X67571785Y-60440423D01*
X67419057Y-60399499D01*
X67260943Y-60399499D01*
X67253347Y-60399499D01*
X67253331Y-60399500D01*
X59524500Y-60399500D01*
X59457461Y-60379815D01*
X59411706Y-60327011D01*
X59400500Y-60275500D01*
X59400500Y-59799997D01*
X59400499Y-59799984D01*
X59389999Y-59697204D01*
X59389999Y-59697203D01*
X59334814Y-59530666D01*
X59317623Y-59502796D01*
X59242713Y-59381348D01*
X59242710Y-59381344D01*
X59118655Y-59257289D01*
X59118651Y-59257286D01*
X58969337Y-59165187D01*
X58969335Y-59165186D01*
X58886065Y-59137593D01*
X58802797Y-59110001D01*
X58802795Y-59110000D01*
X58700015Y-59099500D01*
X58700008Y-59099500D01*
X56299992Y-59099500D01*
X56299984Y-59099500D01*
X56197204Y-59110000D01*
X56197203Y-59110001D01*
X56030664Y-59165186D01*
X56030662Y-59165187D01*
X55881348Y-59257286D01*
X55881344Y-59257289D01*
X55757289Y-59381344D01*
X55757286Y-59381348D01*
X55665187Y-59530662D01*
X55665186Y-59530664D01*
X55610001Y-59697203D01*
X55610000Y-59697204D01*
X55599500Y-59799984D01*
X52100500Y-59799984D01*
X52100500Y-58800096D01*
X52120185Y-58733057D01*
X52136814Y-58712420D01*
X53249252Y-57599982D01*
X65399500Y-57599982D01*
X65399500Y-59400017D01*
X65410000Y-59502796D01*
X65465185Y-59669332D01*
X65465187Y-59669337D01*
X65476851Y-59688247D01*
X65557288Y-59818656D01*
X65681344Y-59942712D01*
X65830665Y-60034814D01*
X65997202Y-60089999D01*
X66099990Y-60100500D01*
X66099995Y-60100500D01*
X67900005Y-60100500D01*
X67900010Y-60100500D01*
X68002798Y-60089999D01*
X68169335Y-60034814D01*
X68318656Y-59942712D01*
X68442712Y-59818656D01*
X68534814Y-59669335D01*
X68589999Y-59502798D01*
X68600500Y-59400010D01*
X68600500Y-58099982D01*
X73899500Y-58099982D01*
X73899500Y-59900017D01*
X73910000Y-60002796D01*
X73942376Y-60100499D01*
X73965186Y-60169335D01*
X74057288Y-60318656D01*
X74181344Y-60442712D01*
X74330665Y-60534814D01*
X74497202Y-60589999D01*
X74599990Y-60600500D01*
X74599995Y-60600500D01*
X76400005Y-60600500D01*
X76400010Y-60600500D01*
X76502798Y-60589999D01*
X76669335Y-60534814D01*
X76818656Y-60442712D01*
X76942712Y-60318656D01*
X77034814Y-60169335D01*
X77089999Y-60002798D01*
X77100500Y-59900010D01*
X77100500Y-58509778D01*
X94099500Y-58509778D01*
X94099500Y-58730221D01*
X94133985Y-58947952D01*
X94202103Y-59157603D01*
X94202104Y-59157606D01*
X94302187Y-59354025D01*
X94431752Y-59532358D01*
X94431756Y-59532363D01*
X94587636Y-59688243D01*
X94587641Y-59688247D01*
X94741436Y-59799984D01*
X94765978Y-59817815D01*
X94894375Y-59883237D01*
X94962393Y-59917895D01*
X94962396Y-59917896D01*
X95038768Y-59942710D01*
X95172049Y-59986015D01*
X95389778Y-60020500D01*
X95389779Y-60020500D01*
X95610221Y-60020500D01*
X95610222Y-60020500D01*
X95827951Y-59986015D01*
X96037606Y-59917895D01*
X96234022Y-59817815D01*
X96412365Y-59688242D01*
X96568242Y-59532365D01*
X96697815Y-59354022D01*
X96731352Y-59288204D01*
X96779326Y-59237409D01*
X96841836Y-59220500D01*
X99819903Y-59220500D01*
X99886942Y-59240185D01*
X99907584Y-59256819D01*
X102363181Y-61712416D01*
X102396666Y-61773739D01*
X102399500Y-61800097D01*
X102399500Y-63699902D01*
X102379815Y-63766941D01*
X102363181Y-63787583D01*
X101019481Y-65131282D01*
X101019479Y-65131285D01*
X100979804Y-65200006D01*
X100979803Y-65200007D01*
X100940423Y-65268214D01*
X100940423Y-65268215D01*
X100899499Y-65420943D01*
X100899499Y-65420945D01*
X100899499Y-65589046D01*
X100899500Y-65589059D01*
X100899500Y-66199902D01*
X100879815Y-66266941D01*
X100863181Y-66287583D01*
X100019481Y-67131282D01*
X100019479Y-67131285D01*
X99969361Y-67218094D01*
X99969359Y-67218096D01*
X99940425Y-67268209D01*
X99940424Y-67268210D01*
X99940423Y-67268215D01*
X99899499Y-67420943D01*
X99899499Y-67420945D01*
X99899499Y-67589046D01*
X99899500Y-67589059D01*
X99899500Y-72775500D01*
X99879815Y-72842539D01*
X99827011Y-72888294D01*
X99775500Y-72899500D01*
X97876993Y-72899500D01*
X97809954Y-72879815D01*
X97764199Y-72827011D01*
X97754255Y-72757853D01*
X97766509Y-72719204D01*
X97797893Y-72657610D01*
X97797896Y-72657603D01*
X97800352Y-72650042D01*
X97866015Y-72447951D01*
X97900500Y-72230222D01*
X97900500Y-72009778D01*
X97866015Y-71792049D01*
X97797895Y-71582394D01*
X97797895Y-71582393D01*
X97763237Y-71514375D01*
X97697815Y-71385978D01*
X97681260Y-71363192D01*
X97568247Y-71207641D01*
X97568243Y-71207636D01*
X97412363Y-71051756D01*
X97412358Y-71051752D01*
X97234025Y-70922187D01*
X97234024Y-70922186D01*
X97234022Y-70922185D01*
X97171096Y-70890122D01*
X97037606Y-70822104D01*
X97037603Y-70822103D01*
X96827952Y-70753985D01*
X96719086Y-70736742D01*
X96610222Y-70719500D01*
X96389778Y-70719500D01*
X96317201Y-70730995D01*
X96172047Y-70753985D01*
X95962396Y-70822103D01*
X95962393Y-70822104D01*
X95765974Y-70922187D01*
X95587641Y-71051752D01*
X95587636Y-71051756D01*
X95431756Y-71207636D01*
X95431752Y-71207641D01*
X95302187Y-71385974D01*
X95202104Y-71582393D01*
X95202103Y-71582396D01*
X95133985Y-71792047D01*
X95105906Y-71969334D01*
X95099500Y-72009778D01*
X95099500Y-72230222D01*
X95116065Y-72334812D01*
X95133985Y-72447952D01*
X95202103Y-72657603D01*
X95202104Y-72657606D01*
X95302187Y-72854025D01*
X95431752Y-73032358D01*
X95431756Y-73032363D01*
X95456298Y-73056905D01*
X95489783Y-73118228D01*
X95484799Y-73187920D01*
X95476005Y-73206585D01*
X95440423Y-73268215D01*
X95440423Y-73268216D01*
X95399500Y-73420943D01*
X95399500Y-74770397D01*
X95379815Y-74837436D01*
X95331800Y-74880879D01*
X95318389Y-74887712D01*
X95152786Y-75008028D01*
X95008028Y-75152786D01*
X94887715Y-75318386D01*
X94794781Y-75500776D01*
X94731522Y-75695465D01*
X94706484Y-75853553D01*
X94699500Y-75897648D01*
X94699500Y-76102352D01*
X94703878Y-76129995D01*
X94731522Y-76304534D01*
X94794781Y-76499223D01*
X94858691Y-76624653D01*
X94887585Y-76681359D01*
X94887715Y-76681613D01*
X95008028Y-76847213D01*
X95152786Y-76991971D01*
X95287713Y-77089999D01*
X95318390Y-77112287D01*
X95434607Y-77171503D01*
X95500776Y-77205218D01*
X95500778Y-77205218D01*
X95500781Y-77205220D01*
X95605137Y-77239127D01*
X95695465Y-77268477D01*
X95796557Y-77284488D01*
X95897648Y-77300500D01*
X95897649Y-77300500D01*
X96102351Y-77300500D01*
X96102352Y-77300500D01*
X96304534Y-77268477D01*
X96499219Y-77205220D01*
X96681610Y-77112287D01*
X96788246Y-77034812D01*
X96847213Y-76991971D01*
X96847215Y-76991968D01*
X96847219Y-76991966D01*
X96991966Y-76847219D01*
X96991968Y-76847215D01*
X96991971Y-76847213D01*
X97044732Y-76774590D01*
X97112287Y-76681610D01*
X97205220Y-76499219D01*
X97268477Y-76304534D01*
X97300500Y-76102352D01*
X97300500Y-75897648D01*
X97287989Y-75818656D01*
X97268477Y-75695465D01*
X97205875Y-75502798D01*
X97205220Y-75500781D01*
X97205218Y-75500778D01*
X97205218Y-75500776D01*
X97167985Y-75427703D01*
X97153878Y-75400017D01*
X97141369Y-75375466D01*
X104100000Y-75375466D01*
X104100000Y-75624533D01*
X104132508Y-75871463D01*
X104196973Y-76112049D01*
X104292283Y-76342148D01*
X104292288Y-76342159D01*
X104416813Y-76557841D01*
X104416819Y-76557849D01*
X104491400Y-76655045D01*
X105398958Y-75747487D01*
X105423978Y-75807890D01*
X105495112Y-75914351D01*
X105585649Y-76004888D01*
X105692110Y-76076022D01*
X105752511Y-76101041D01*
X104844953Y-77008598D01*
X104942150Y-77083180D01*
X104942158Y-77083186D01*
X105157840Y-77207711D01*
X105157851Y-77207716D01*
X105387950Y-77303026D01*
X105628536Y-77367491D01*
X105875466Y-77400000D01*
X106124534Y-77400000D01*
X106371463Y-77367491D01*
X106612049Y-77303026D01*
X106842148Y-77207716D01*
X106842159Y-77207711D01*
X107057855Y-77083178D01*
X107155045Y-77008600D01*
X107155045Y-77008597D01*
X106247488Y-76101041D01*
X106307890Y-76076022D01*
X106414351Y-76004888D01*
X106504888Y-75914351D01*
X106576022Y-75807890D01*
X106601041Y-75747489D01*
X107508597Y-76655045D01*
X107508600Y-76655045D01*
X107583178Y-76557855D01*
X107707711Y-76342159D01*
X107707716Y-76342148D01*
X107803026Y-76112049D01*
X107867491Y-75871463D01*
X107900000Y-75624533D01*
X107900000Y-75375466D01*
X107867491Y-75128536D01*
X107803026Y-74887950D01*
X107707716Y-74657851D01*
X107707711Y-74657840D01*
X107583186Y-74442158D01*
X107583180Y-74442150D01*
X107508598Y-74344953D01*
X106601041Y-75252510D01*
X106576022Y-75192110D01*
X106504888Y-75085649D01*
X106414351Y-74995112D01*
X106307890Y-74923978D01*
X106247487Y-74898957D01*
X107155045Y-73991400D01*
X107057849Y-73916819D01*
X107057841Y-73916813D01*
X106842159Y-73792288D01*
X106842148Y-73792283D01*
X106612049Y-73696973D01*
X106371463Y-73632508D01*
X106124534Y-73600000D01*
X105875466Y-73600000D01*
X105628536Y-73632508D01*
X105387950Y-73696973D01*
X105157851Y-73792283D01*
X105157847Y-73792285D01*
X104942143Y-73916823D01*
X104844953Y-73991399D01*
X104844953Y-73991400D01*
X105752511Y-74898958D01*
X105692110Y-74923978D01*
X105585649Y-74995112D01*
X105495112Y-75085649D01*
X105423978Y-75192110D01*
X105398958Y-75252511D01*
X104491400Y-74344953D01*
X104491399Y-74344953D01*
X104416823Y-74442143D01*
X104292285Y-74657847D01*
X104292283Y-74657851D01*
X104196973Y-74887950D01*
X104132508Y-75128536D01*
X104100000Y-75375466D01*
X97141369Y-75375466D01*
X97112287Y-75318390D01*
X97104556Y-75307749D01*
X96991971Y-75152786D01*
X96847213Y-75008028D01*
X96681610Y-74887712D01*
X96668200Y-74880879D01*
X96617406Y-74832903D01*
X96600500Y-74770397D01*
X96600500Y-74224500D01*
X96620185Y-74157461D01*
X96672989Y-74111706D01*
X96724500Y-74100500D01*
X100579055Y-74100500D01*
X100579057Y-74100500D01*
X100731784Y-74059577D01*
X100868716Y-73980520D01*
X100980520Y-73868716D01*
X101059577Y-73731784D01*
X101100500Y-73579057D01*
X101100500Y-67800097D01*
X101120185Y-67733058D01*
X101136819Y-67712416D01*
X101430749Y-67418486D01*
X101980520Y-66868716D01*
X102059577Y-66731784D01*
X102100501Y-66579057D01*
X102100501Y-66420942D01*
X102100501Y-66413347D01*
X102100500Y-66413329D01*
X102100500Y-65800096D01*
X102120185Y-65733057D01*
X102136814Y-65712420D01*
X103358506Y-64490727D01*
X103358511Y-64490724D01*
X103368714Y-64480520D01*
X103368716Y-64480520D01*
X103480520Y-64368716D01*
X103559577Y-64231784D01*
X103600500Y-64079057D01*
X103600500Y-61420943D01*
X103559577Y-61268216D01*
X103559577Y-61268215D01*
X103496180Y-61158409D01*
X103480520Y-61131284D01*
X103480518Y-61131282D01*
X103480517Y-61131280D01*
X103364397Y-61015160D01*
X103364374Y-61015139D01*
X100607590Y-58258355D01*
X100607588Y-58258352D01*
X100488717Y-58139481D01*
X100488716Y-58139480D01*
X100389839Y-58082394D01*
X100389838Y-58082393D01*
X100351783Y-58060422D01*
X100295881Y-58045443D01*
X100199057Y-58019499D01*
X100040943Y-58019499D01*
X100033347Y-58019499D01*
X100033331Y-58019500D01*
X96841836Y-58019500D01*
X96774797Y-57999815D01*
X96731352Y-57951796D01*
X96697814Y-57885976D01*
X96568247Y-57707641D01*
X96568243Y-57707636D01*
X96412363Y-57551756D01*
X96412358Y-57551752D01*
X96234025Y-57422187D01*
X96234024Y-57422186D01*
X96234022Y-57422185D01*
X96171096Y-57390122D01*
X96037606Y-57322104D01*
X96037603Y-57322103D01*
X95827952Y-57253985D01*
X95719086Y-57236742D01*
X95610222Y-57219500D01*
X95389778Y-57219500D01*
X95317201Y-57230995D01*
X95172047Y-57253985D01*
X94962396Y-57322103D01*
X94962393Y-57322104D01*
X94765974Y-57422187D01*
X94587641Y-57551752D01*
X94587636Y-57551756D01*
X94431756Y-57707636D01*
X94431752Y-57707641D01*
X94302187Y-57885974D01*
X94202104Y-58082393D01*
X94202104Y-58082395D01*
X94133985Y-58292047D01*
X94099500Y-58509778D01*
X77100500Y-58509778D01*
X77100500Y-58099990D01*
X77089999Y-57997202D01*
X77034814Y-57830665D01*
X76942712Y-57681344D01*
X76818656Y-57557288D01*
X76669335Y-57465186D01*
X76502798Y-57410001D01*
X76502796Y-57410000D01*
X76400017Y-57399500D01*
X76400010Y-57399500D01*
X74599990Y-57399500D01*
X74599982Y-57399500D01*
X74497203Y-57410000D01*
X74497202Y-57410001D01*
X74414669Y-57437349D01*
X74330667Y-57465185D01*
X74330662Y-57465187D01*
X74181342Y-57557289D01*
X74057289Y-57681342D01*
X73965187Y-57830662D01*
X73965186Y-57830665D01*
X73910001Y-57997202D01*
X73910001Y-57997203D01*
X73910000Y-57997203D01*
X73899500Y-58099982D01*
X68600500Y-58099982D01*
X68600500Y-57599990D01*
X68589999Y-57497202D01*
X68534814Y-57330665D01*
X68442712Y-57181344D01*
X68318656Y-57057288D01*
X68169335Y-56965186D01*
X68002798Y-56910001D01*
X68002796Y-56910000D01*
X67900017Y-56899500D01*
X67900010Y-56899500D01*
X66099990Y-56899500D01*
X66099982Y-56899500D01*
X65997203Y-56910000D01*
X65997202Y-56910001D01*
X65914669Y-56937349D01*
X65830667Y-56965185D01*
X65830662Y-56965187D01*
X65681342Y-57057289D01*
X65557289Y-57181342D01*
X65465187Y-57330662D01*
X65465186Y-57330665D01*
X65410001Y-57497202D01*
X65410001Y-57497203D01*
X65410000Y-57497203D01*
X65399500Y-57599982D01*
X53249252Y-57599982D01*
X57451586Y-53397648D01*
X83199500Y-53397648D01*
X83199500Y-53602351D01*
X83231522Y-53804534D01*
X83294781Y-53999223D01*
X83346080Y-54099901D01*
X83387585Y-54181359D01*
X83387715Y-54181613D01*
X83508028Y-54347213D01*
X83652786Y-54491971D01*
X83754441Y-54565826D01*
X83818390Y-54612287D01*
X83934607Y-54671503D01*
X84000776Y-54705218D01*
X84000778Y-54705218D01*
X84000781Y-54705220D01*
X84105137Y-54739127D01*
X84195465Y-54768477D01*
X84296557Y-54784488D01*
X84397648Y-54800500D01*
X84397649Y-54800500D01*
X84602351Y-54800500D01*
X84602352Y-54800500D01*
X84804534Y-54768477D01*
X84999219Y-54705220D01*
X85181610Y-54612287D01*
X85336160Y-54500001D01*
X85347213Y-54491971D01*
X85347215Y-54491968D01*
X85347219Y-54491966D01*
X85491966Y-54347219D01*
X85491968Y-54347215D01*
X85491971Y-54347213D01*
X85544732Y-54274590D01*
X85612287Y-54181610D01*
X85705220Y-53999219D01*
X85768477Y-53804534D01*
X85800500Y-53602352D01*
X85800500Y-53397682D01*
X88200000Y-53397682D01*
X88200000Y-53602317D01*
X88232009Y-53804417D01*
X88295244Y-53999031D01*
X88388141Y-54181350D01*
X88388147Y-54181359D01*
X88420523Y-54225921D01*
X88420524Y-54225922D01*
X89100000Y-53546446D01*
X89100000Y-53552661D01*
X89127259Y-53654394D01*
X89179920Y-53745606D01*
X89254394Y-53820080D01*
X89345606Y-53872741D01*
X89447339Y-53900000D01*
X89453553Y-53900000D01*
X88774076Y-54579474D01*
X88818650Y-54611859D01*
X89000968Y-54704755D01*
X89195582Y-54767990D01*
X89397683Y-54800000D01*
X89602317Y-54800000D01*
X89804417Y-54767990D01*
X89999031Y-54704755D01*
X90181349Y-54611859D01*
X90225921Y-54579474D01*
X90225922Y-54579474D01*
X90111204Y-54464756D01*
X90028395Y-54381947D01*
X102500000Y-54381947D01*
X102500000Y-54618052D01*
X102536934Y-54851247D01*
X102609897Y-55075802D01*
X102717087Y-55286174D01*
X102777338Y-55369104D01*
X102777340Y-55369105D01*
X103517037Y-54629408D01*
X103534075Y-54692993D01*
X103599901Y-54807007D01*
X103692993Y-54900099D01*
X103807007Y-54965925D01*
X103870590Y-54982962D01*
X103130893Y-55722658D01*
X103213828Y-55782914D01*
X103424197Y-55890102D01*
X103648752Y-55963065D01*
X103648751Y-55963065D01*
X103881948Y-56000000D01*
X104118052Y-56000000D01*
X104351247Y-55963065D01*
X104575802Y-55890102D01*
X104786163Y-55782918D01*
X104786169Y-55782914D01*
X104869104Y-55722658D01*
X104869105Y-55722658D01*
X104129408Y-54982962D01*
X104192993Y-54965925D01*
X104307007Y-54900099D01*
X104400099Y-54807007D01*
X104465925Y-54692993D01*
X104482962Y-54629409D01*
X105222658Y-55369105D01*
X105222658Y-55369104D01*
X105282914Y-55286169D01*
X105282918Y-55286163D01*
X105390102Y-55075802D01*
X105463065Y-54851247D01*
X105500000Y-54618052D01*
X105500000Y-54381947D01*
X105463065Y-54148752D01*
X105390102Y-53924197D01*
X105282914Y-53713828D01*
X105222658Y-53630894D01*
X105222658Y-53630893D01*
X104482962Y-54370590D01*
X104465925Y-54307007D01*
X104400099Y-54192993D01*
X104307007Y-54099901D01*
X104192993Y-54034075D01*
X104129409Y-54017037D01*
X104869105Y-53277340D01*
X104869104Y-53277338D01*
X104786174Y-53217087D01*
X104575802Y-53109897D01*
X104351247Y-53036934D01*
X104351248Y-53036934D01*
X104118052Y-53000000D01*
X103881948Y-53000000D01*
X103648752Y-53036934D01*
X103424197Y-53109897D01*
X103213830Y-53217084D01*
X103130894Y-53277340D01*
X103870591Y-54017037D01*
X103807007Y-54034075D01*
X103692993Y-54099901D01*
X103599901Y-54192993D01*
X103534075Y-54307007D01*
X103517037Y-54370591D01*
X102777340Y-53630894D01*
X102717084Y-53713830D01*
X102609897Y-53924197D01*
X102536934Y-54148752D01*
X102500000Y-54381947D01*
X90028395Y-54381947D01*
X89546447Y-53900000D01*
X89552661Y-53900000D01*
X89654394Y-53872741D01*
X89745606Y-53820080D01*
X89820080Y-53745606D01*
X89872741Y-53654394D01*
X89900000Y-53552661D01*
X89900000Y-53546447D01*
X90579474Y-54225921D01*
X90611859Y-54181349D01*
X90704755Y-53999031D01*
X90767990Y-53804417D01*
X90800000Y-53602317D01*
X90800000Y-53397682D01*
X90791497Y-53343997D01*
X90767990Y-53195582D01*
X90704755Y-53000968D01*
X90611859Y-52818650D01*
X90579474Y-52774077D01*
X90579474Y-52774076D01*
X89900000Y-53453551D01*
X89900000Y-53447339D01*
X89872741Y-53345606D01*
X89820080Y-53254394D01*
X89745606Y-53179920D01*
X89654394Y-53127259D01*
X89552661Y-53100000D01*
X89546446Y-53100000D01*
X90225922Y-52420524D01*
X90225921Y-52420523D01*
X90181359Y-52388147D01*
X90181350Y-52388141D01*
X89999031Y-52295244D01*
X89804417Y-52232009D01*
X89602317Y-52200000D01*
X89397683Y-52200000D01*
X89195582Y-52232009D01*
X89000968Y-52295244D01*
X88818644Y-52388143D01*
X88774077Y-52420523D01*
X88774077Y-52420524D01*
X89453554Y-53100000D01*
X89447339Y-53100000D01*
X89345606Y-53127259D01*
X89254394Y-53179920D01*
X89179920Y-53254394D01*
X89127259Y-53345606D01*
X89100000Y-53447339D01*
X89100000Y-53453553D01*
X88420524Y-52774077D01*
X88420523Y-52774077D01*
X88388143Y-52818644D01*
X88295244Y-53000968D01*
X88232009Y-53195582D01*
X88200000Y-53397682D01*
X85800500Y-53397682D01*
X85800500Y-53397648D01*
X85781445Y-53277340D01*
X85768477Y-53195465D01*
X85716967Y-53036934D01*
X85705220Y-53000781D01*
X85705218Y-53000778D01*
X85705218Y-53000776D01*
X85612419Y-52818650D01*
X85612287Y-52818390D01*
X85580092Y-52774077D01*
X85491971Y-52652786D01*
X85347213Y-52508028D01*
X85181613Y-52387715D01*
X85181612Y-52387714D01*
X85181610Y-52387713D01*
X85124653Y-52358691D01*
X84999223Y-52294781D01*
X84804534Y-52231522D01*
X84629995Y-52203878D01*
X84602352Y-52199500D01*
X84397648Y-52199500D01*
X84373329Y-52203351D01*
X84195465Y-52231522D01*
X84000776Y-52294781D01*
X83818386Y-52387715D01*
X83652786Y-52508028D01*
X83508028Y-52652786D01*
X83387715Y-52818386D01*
X83294781Y-53000776D01*
X83231522Y-53195465D01*
X83199500Y-53397648D01*
X57451586Y-53397648D01*
X60549250Y-50299983D01*
X94099500Y-50299983D01*
X94099500Y-51700001D01*
X94099501Y-51700018D01*
X94110000Y-51802796D01*
X94110001Y-51802799D01*
X94112130Y-51809223D01*
X94165186Y-51969334D01*
X94257288Y-52118656D01*
X94381344Y-52242712D01*
X94530666Y-52334814D01*
X94697203Y-52389999D01*
X94799991Y-52400500D01*
X96200008Y-52400499D01*
X96302797Y-52389999D01*
X96469334Y-52334814D01*
X96618656Y-52242712D01*
X96742712Y-52118656D01*
X96834814Y-51969334D01*
X96889999Y-51802797D01*
X96900500Y-51700009D01*
X96900499Y-50299992D01*
X96889999Y-50197203D01*
X96834814Y-50030666D01*
X96742712Y-49881344D01*
X96618656Y-49757288D01*
X96469334Y-49665186D01*
X96302797Y-49610001D01*
X96302795Y-49610000D01*
X96200010Y-49599500D01*
X94799998Y-49599500D01*
X94799981Y-49599501D01*
X94697203Y-49610000D01*
X94697200Y-49610001D01*
X94530668Y-49665185D01*
X94530663Y-49665187D01*
X94381342Y-49757289D01*
X94257289Y-49881342D01*
X94165187Y-50030663D01*
X94165185Y-50030668D01*
X94161588Y-50041523D01*
X94110001Y-50197203D01*
X94110001Y-50197204D01*
X94110000Y-50197204D01*
X94099500Y-50299983D01*
X60549250Y-50299983D01*
X62240407Y-48608826D01*
X62301728Y-48575343D01*
X62371420Y-48580327D01*
X62375539Y-48581948D01*
X62404588Y-48593980D01*
X62452219Y-48613710D01*
X62667537Y-48671404D01*
X62888543Y-48700500D01*
X62888550Y-48700500D01*
X63111450Y-48700500D01*
X63111457Y-48700500D01*
X63332463Y-48671404D01*
X63547781Y-48613710D01*
X63753726Y-48528405D01*
X63946774Y-48416948D01*
X64123624Y-48281247D01*
X64281247Y-48123624D01*
X64416948Y-47946774D01*
X64528405Y-47753726D01*
X64613710Y-47547781D01*
X64671404Y-47332463D01*
X64700500Y-47111457D01*
X64700500Y-46888549D01*
X76299500Y-46888549D01*
X76299500Y-47111450D01*
X76299501Y-47111466D01*
X76328594Y-47332452D01*
X76328595Y-47332457D01*
X76328596Y-47332463D01*
X76328597Y-47332465D01*
X76386290Y-47547780D01*
X76386293Y-47547790D01*
X76471593Y-47753722D01*
X76471595Y-47753726D01*
X76583052Y-47946774D01*
X76583057Y-47946780D01*
X76583058Y-47946782D01*
X76718751Y-48123622D01*
X76718757Y-48123629D01*
X76876370Y-48281242D01*
X76876376Y-48281247D01*
X77053226Y-48416948D01*
X77246274Y-48528405D01*
X77298991Y-48550241D01*
X77440432Y-48608828D01*
X77452219Y-48613710D01*
X77667537Y-48671404D01*
X77888543Y-48700500D01*
X77888550Y-48700500D01*
X78111450Y-48700500D01*
X78111457Y-48700500D01*
X78332463Y-48671404D01*
X78547781Y-48613710D01*
X78753726Y-48528405D01*
X78946774Y-48416948D01*
X79123624Y-48281247D01*
X79281247Y-48123624D01*
X79416948Y-47946774D01*
X79528405Y-47753726D01*
X79613710Y-47547781D01*
X79671404Y-47332463D01*
X79700500Y-47111457D01*
X79700500Y-46888543D01*
X79671404Y-46667537D01*
X79613710Y-46452219D01*
X79528405Y-46246274D01*
X79416948Y-46053226D01*
X79281247Y-45876376D01*
X79281242Y-45876370D01*
X79123629Y-45718757D01*
X79123622Y-45718751D01*
X78946782Y-45583058D01*
X78946780Y-45583057D01*
X78946774Y-45583052D01*
X78753726Y-45471595D01*
X78753722Y-45471593D01*
X78547790Y-45386293D01*
X78547783Y-45386291D01*
X78547781Y-45386290D01*
X78332463Y-45328596D01*
X78332457Y-45328595D01*
X78332452Y-45328594D01*
X78111466Y-45299501D01*
X78111463Y-45299500D01*
X78111457Y-45299500D01*
X77888543Y-45299500D01*
X77888537Y-45299500D01*
X77888533Y-45299501D01*
X77667547Y-45328594D01*
X77667540Y-45328595D01*
X77667537Y-45328596D01*
X77452219Y-45386290D01*
X77452209Y-45386293D01*
X77246277Y-45471593D01*
X77246273Y-45471595D01*
X77053226Y-45583052D01*
X77053217Y-45583058D01*
X76876377Y-45718751D01*
X76876370Y-45718757D01*
X76718757Y-45876370D01*
X76718751Y-45876377D01*
X76583058Y-46053217D01*
X76583052Y-46053226D01*
X76471595Y-46246273D01*
X76471593Y-46246277D01*
X76386293Y-46452209D01*
X76386290Y-46452219D01*
X76373354Y-46500499D01*
X76328597Y-46667534D01*
X76328594Y-46667547D01*
X76299501Y-46888533D01*
X76299500Y-46888549D01*
X64700500Y-46888549D01*
X64700500Y-46888543D01*
X64671404Y-46667537D01*
X64613710Y-46452219D01*
X64528405Y-46246274D01*
X64416948Y-46053226D01*
X64281247Y-45876376D01*
X64281242Y-45876370D01*
X64123629Y-45718757D01*
X64123622Y-45718751D01*
X63946782Y-45583058D01*
X63946780Y-45583057D01*
X63946774Y-45583052D01*
X63753726Y-45471595D01*
X63753722Y-45471593D01*
X63547790Y-45386293D01*
X63547783Y-45386291D01*
X63547781Y-45386290D01*
X63332463Y-45328596D01*
X63332457Y-45328595D01*
X63332452Y-45328594D01*
X63111466Y-45299501D01*
X63111463Y-45299500D01*
X63111457Y-45299500D01*
X62888543Y-45299500D01*
X62888537Y-45299500D01*
X62888533Y-45299501D01*
X62667547Y-45328594D01*
X62667540Y-45328595D01*
X62667537Y-45328596D01*
X62452219Y-45386290D01*
X62452209Y-45386293D01*
X62246277Y-45471593D01*
X62246273Y-45471595D01*
X62053226Y-45583052D01*
X62053217Y-45583058D01*
X61876377Y-45718751D01*
X61876370Y-45718757D01*
X61718757Y-45876370D01*
X61718751Y-45876377D01*
X61583058Y-46053217D01*
X61583052Y-46053226D01*
X61471595Y-46246273D01*
X61471593Y-46246277D01*
X61386293Y-46452209D01*
X61386290Y-46452219D01*
X61373354Y-46500499D01*
X61328597Y-46667534D01*
X61328594Y-46667547D01*
X61299501Y-46888533D01*
X61299500Y-46888549D01*
X61299500Y-47111450D01*
X61299501Y-47111466D01*
X61328594Y-47332452D01*
X61328595Y-47332457D01*
X61328596Y-47332463D01*
X61328597Y-47332465D01*
X61386290Y-47547781D01*
X61418051Y-47624459D01*
X61425520Y-47693928D01*
X61394245Y-47756407D01*
X61391171Y-47759592D01*
X51131286Y-58019478D01*
X51019481Y-58131282D01*
X51019479Y-58131284D01*
X50994199Y-58175071D01*
X50983514Y-58193580D01*
X50961968Y-58230897D01*
X50940423Y-58268214D01*
X50926781Y-58319124D01*
X50899499Y-58420943D01*
X48500500Y-58420943D01*
X48500500Y-51207648D01*
X53699500Y-51207648D01*
X53699500Y-51412351D01*
X53731522Y-51614534D01*
X53794781Y-51809223D01*
X53858691Y-51934653D01*
X53876361Y-51969331D01*
X53887715Y-51991613D01*
X54008028Y-52157213D01*
X54152786Y-52301971D01*
X54307749Y-52414556D01*
X54318390Y-52422287D01*
X54434607Y-52481503D01*
X54500776Y-52515218D01*
X54500778Y-52515218D01*
X54500781Y-52515220D01*
X54605137Y-52549127D01*
X54695465Y-52578477D01*
X54796557Y-52594488D01*
X54897648Y-52610500D01*
X54897649Y-52610500D01*
X55102351Y-52610500D01*
X55102352Y-52610500D01*
X55304534Y-52578477D01*
X55499219Y-52515220D01*
X55681610Y-52422287D01*
X55774590Y-52354732D01*
X55847213Y-52301971D01*
X55847215Y-52301968D01*
X55847219Y-52301966D01*
X55991966Y-52157219D01*
X55991968Y-52157215D01*
X55991971Y-52157213D01*
X56044732Y-52084590D01*
X56112287Y-51991610D01*
X56205220Y-51809219D01*
X56268477Y-51614534D01*
X56300500Y-51412352D01*
X56300500Y-51207648D01*
X56268477Y-51005466D01*
X56205220Y-50810781D01*
X56205218Y-50810778D01*
X56205218Y-50810776D01*
X56171503Y-50744607D01*
X56112287Y-50628390D01*
X56104556Y-50617749D01*
X55991971Y-50462786D01*
X55847213Y-50318028D01*
X55681613Y-50197715D01*
X55681612Y-50197714D01*
X55681610Y-50197713D01*
X55624653Y-50168691D01*
X55499223Y-50104781D01*
X55304534Y-50041522D01*
X55129995Y-50013878D01*
X55102352Y-50009500D01*
X54897648Y-50009500D01*
X54873329Y-50013351D01*
X54695465Y-50041522D01*
X54500776Y-50104781D01*
X54318386Y-50197715D01*
X54152786Y-50318028D01*
X54008028Y-50462786D01*
X53887715Y-50628386D01*
X53794781Y-50810776D01*
X53731522Y-51005465D01*
X53699500Y-51207648D01*
X48500500Y-51207648D01*
X48500500Y-43596096D01*
X48520185Y-43529057D01*
X48572989Y-43483302D01*
X48642147Y-43473358D01*
X48705703Y-43502383D01*
X48729494Y-43530125D01*
X48764642Y-43586064D01*
X48901490Y-43757667D01*
X48956284Y-43826376D01*
X49173624Y-44043716D01*
X49413931Y-44235354D01*
X49674185Y-44398882D01*
X49951111Y-44532243D01*
X49965332Y-44537219D01*
X50241215Y-44633755D01*
X50241227Y-44633759D01*
X50540886Y-44702154D01*
X50846314Y-44736567D01*
X50846315Y-44736568D01*
X50846318Y-44736568D01*
X51153685Y-44736568D01*
X51153685Y-44736567D01*
X51459114Y-44702154D01*
X51758773Y-44633759D01*
X52048889Y-44532243D01*
X52325815Y-44398882D01*
X52586069Y-44235354D01*
X52826376Y-44043716D01*
X53043716Y-43826376D01*
X53234095Y-43587648D01*
X53699500Y-43587648D01*
X53699500Y-43792351D01*
X53731522Y-43994534D01*
X53794781Y-44189223D01*
X53887715Y-44371613D01*
X54008028Y-44537213D01*
X54152786Y-44681971D01*
X54307749Y-44794556D01*
X54318390Y-44802287D01*
X54434607Y-44861503D01*
X54500776Y-44895218D01*
X54500778Y-44895218D01*
X54500781Y-44895220D01*
X54600409Y-44927591D01*
X54695465Y-44958477D01*
X54796557Y-44974488D01*
X54897648Y-44990500D01*
X54897649Y-44990500D01*
X55102351Y-44990500D01*
X55102352Y-44990500D01*
X55304534Y-44958477D01*
X55499219Y-44895220D01*
X55681610Y-44802287D01*
X55774590Y-44734732D01*
X55847213Y-44681971D01*
X55847215Y-44681968D01*
X55847219Y-44681966D01*
X55991966Y-44537219D01*
X55991968Y-44537215D01*
X55991971Y-44537213D01*
X56062292Y-44440423D01*
X56112287Y-44371610D01*
X56205220Y-44189219D01*
X56268477Y-43994534D01*
X56275192Y-43952135D01*
X87967000Y-43952135D01*
X87967000Y-46047870D01*
X87967001Y-46047876D01*
X87973408Y-46107483D01*
X88023702Y-46242328D01*
X88023706Y-46242335D01*
X88109952Y-46357544D01*
X88109955Y-46357547D01*
X88225164Y-46443793D01*
X88225171Y-46443797D01*
X88360017Y-46494091D01*
X88360016Y-46494091D01*
X88366944Y-46494835D01*
X88419627Y-46500500D01*
X90420372Y-46500499D01*
X90479983Y-46494091D01*
X90614831Y-46443796D01*
X90730046Y-46357546D01*
X90816296Y-46242331D01*
X90826872Y-46213974D01*
X90868740Y-46158041D01*
X90934204Y-46133622D01*
X91002477Y-46148472D01*
X91015940Y-46156988D01*
X91198723Y-46289788D01*
X91402429Y-46393582D01*
X91619871Y-46464234D01*
X91710000Y-46478509D01*
X91710000Y-45490747D01*
X91747708Y-45512518D01*
X91887591Y-45550000D01*
X92032409Y-45550000D01*
X92172292Y-45512518D01*
X92210000Y-45490747D01*
X92210000Y-46478508D01*
X92300128Y-46464234D01*
X92517570Y-46393582D01*
X92721276Y-46289788D01*
X92906242Y-46155402D01*
X93067905Y-45993739D01*
X93129371Y-45909137D01*
X93184701Y-45866470D01*
X93254314Y-45860491D01*
X93316109Y-45893096D01*
X93330007Y-45909134D01*
X93391714Y-45994066D01*
X93553434Y-46155786D01*
X93738462Y-46290217D01*
X93870599Y-46357544D01*
X93942244Y-46394049D01*
X94159751Y-46464721D01*
X94159752Y-46464721D01*
X94159755Y-46464722D01*
X94385646Y-46500500D01*
X94385647Y-46500500D01*
X94614353Y-46500500D01*
X94614354Y-46500500D01*
X94840245Y-46464722D01*
X94840248Y-46464721D01*
X94840249Y-46464721D01*
X95057755Y-46394049D01*
X95057755Y-46394048D01*
X95057758Y-46394048D01*
X95261538Y-46290217D01*
X95446566Y-46155786D01*
X95608286Y-45994066D01*
X95742717Y-45809038D01*
X95814475Y-45668205D01*
X95862450Y-45617409D01*
X95924960Y-45600500D01*
X97999903Y-45600500D01*
X98066942Y-45620185D01*
X98087584Y-45636819D01*
X106263181Y-53812416D01*
X106296666Y-53873739D01*
X106299500Y-53900097D01*
X106299500Y-55300001D01*
X106299502Y-55300021D01*
X106307531Y-55378628D01*
X106294761Y-55447321D01*
X106271854Y-55478909D01*
X105631286Y-56119478D01*
X105519481Y-56231282D01*
X105519479Y-56231285D01*
X105469361Y-56318094D01*
X105469359Y-56318096D01*
X105440425Y-56368209D01*
X105440424Y-56368210D01*
X105440423Y-56368215D01*
X105399499Y-56520943D01*
X105399499Y-56520945D01*
X105399499Y-56689046D01*
X105399500Y-56689059D01*
X105399500Y-68475500D01*
X105379815Y-68542539D01*
X105327011Y-68588294D01*
X105275500Y-68599500D01*
X104799984Y-68599500D01*
X104697204Y-68610000D01*
X104697203Y-68610001D01*
X104530664Y-68665186D01*
X104530662Y-68665187D01*
X104381348Y-68757286D01*
X104381344Y-68757289D01*
X104257289Y-68881344D01*
X104257286Y-68881348D01*
X104165187Y-69030662D01*
X104165186Y-69030664D01*
X104110001Y-69197203D01*
X104110000Y-69197204D01*
X104099500Y-69299984D01*
X104099500Y-71700015D01*
X104110000Y-71802795D01*
X104110001Y-71802796D01*
X104165186Y-71969335D01*
X104165187Y-71969337D01*
X104257286Y-72118651D01*
X104257289Y-72118655D01*
X104381344Y-72242710D01*
X104381348Y-72242713D01*
X104530662Y-72334812D01*
X104530664Y-72334813D01*
X104530666Y-72334814D01*
X104697203Y-72389999D01*
X104799992Y-72400500D01*
X104799997Y-72400500D01*
X107200003Y-72400500D01*
X107200008Y-72400500D01*
X107302797Y-72389999D01*
X107469334Y-72334814D01*
X107618655Y-72242711D01*
X107742711Y-72118655D01*
X107834814Y-71969334D01*
X107889999Y-71802797D01*
X107900500Y-71700008D01*
X107900500Y-69299992D01*
X107889999Y-69197203D01*
X107834814Y-69030666D01*
X107742711Y-68881345D01*
X107618655Y-68757289D01*
X107618651Y-68757286D01*
X107469337Y-68665187D01*
X107469335Y-68665186D01*
X107386065Y-68637593D01*
X107302797Y-68610001D01*
X107302795Y-68610000D01*
X107200015Y-68599500D01*
X107200008Y-68599500D01*
X106724500Y-68599500D01*
X106657461Y-68579815D01*
X106611706Y-68527011D01*
X106600500Y-68475500D01*
X106600500Y-56900096D01*
X106620185Y-56833057D01*
X106636815Y-56812419D01*
X107412416Y-56036817D01*
X107473739Y-56003333D01*
X107500097Y-56000499D01*
X108600002Y-56000499D01*
X108600008Y-56000499D01*
X108702797Y-55989999D01*
X108869334Y-55934814D01*
X109018656Y-55842712D01*
X109142712Y-55718656D01*
X109234814Y-55569334D01*
X109289999Y-55402797D01*
X109300500Y-55300009D01*
X109300499Y-53699992D01*
X109293440Y-53630893D01*
X109289999Y-53597203D01*
X109289998Y-53597200D01*
X109257789Y-53500000D01*
X109234814Y-53430666D01*
X109142712Y-53281344D01*
X109018656Y-53157288D01*
X108869334Y-53065186D01*
X108702797Y-53010001D01*
X108702795Y-53010000D01*
X108600016Y-52999500D01*
X108600009Y-52999500D01*
X107200097Y-52999500D01*
X107133058Y-52979815D01*
X107112416Y-52963181D01*
X98787590Y-44638355D01*
X98787588Y-44638352D01*
X98668717Y-44519481D01*
X98668716Y-44519480D01*
X98581904Y-44469360D01*
X98581904Y-44469359D01*
X98581900Y-44469358D01*
X98531785Y-44440423D01*
X98379057Y-44399499D01*
X98220943Y-44399499D01*
X98213347Y-44399499D01*
X98213331Y-44399500D01*
X95924960Y-44399500D01*
X95857921Y-44379815D01*
X95814475Y-44331795D01*
X95742716Y-44190961D01*
X95608286Y-44005934D01*
X95446566Y-43844214D01*
X95261538Y-43709783D01*
X95131376Y-43643462D01*
X95057755Y-43605950D01*
X94840248Y-43535278D01*
X94632556Y-43502383D01*
X94614354Y-43499500D01*
X94385646Y-43499500D01*
X94367444Y-43502383D01*
X94159753Y-43535278D01*
X94159750Y-43535278D01*
X93942244Y-43605950D01*
X93738461Y-43709783D01*
X93672550Y-43757671D01*
X93553434Y-43844214D01*
X93553432Y-43844216D01*
X93553431Y-43844216D01*
X93391716Y-44005931D01*
X93391709Y-44005940D01*
X93330007Y-44090864D01*
X93274677Y-44133530D01*
X93205063Y-44139508D01*
X93143269Y-44106901D01*
X93129372Y-44090863D01*
X93067907Y-44006263D01*
X93067902Y-44006257D01*
X92906242Y-43844597D01*
X92721276Y-43710211D01*
X92517568Y-43606417D01*
X92300124Y-43535765D01*
X92210000Y-43521490D01*
X92210000Y-44509252D01*
X92172292Y-44487482D01*
X92032409Y-44450000D01*
X91887591Y-44450000D01*
X91747708Y-44487482D01*
X91710000Y-44509252D01*
X91710000Y-43521490D01*
X91709999Y-43521490D01*
X91619875Y-43535765D01*
X91402431Y-43606417D01*
X91198719Y-43710213D01*
X91015939Y-43843010D01*
X90950132Y-43866490D01*
X90882079Y-43850664D01*
X90833384Y-43800558D01*
X90826875Y-43786033D01*
X90816296Y-43757669D01*
X90816295Y-43757667D01*
X90816293Y-43757664D01*
X90730047Y-43642455D01*
X90730044Y-43642452D01*
X90614835Y-43556206D01*
X90614828Y-43556202D01*
X90479982Y-43505908D01*
X90479983Y-43505908D01*
X90420383Y-43499501D01*
X90420381Y-43499500D01*
X90420373Y-43499500D01*
X90420364Y-43499500D01*
X88419629Y-43499500D01*
X88419623Y-43499501D01*
X88360016Y-43505908D01*
X88225171Y-43556202D01*
X88225164Y-43556206D01*
X88109955Y-43642452D01*
X88109952Y-43642455D01*
X88023706Y-43757664D01*
X88023702Y-43757671D01*
X87973408Y-43892517D01*
X87967001Y-43952116D01*
X87967000Y-43952135D01*
X56275192Y-43952135D01*
X56300500Y-43792352D01*
X56300500Y-43587648D01*
X56287554Y-43505909D01*
X56268477Y-43385465D01*
X56205218Y-43190776D01*
X56171503Y-43124607D01*
X56112287Y-43008390D01*
X56080203Y-42964230D01*
X55991971Y-42842786D01*
X55847213Y-42698028D01*
X55681613Y-42577715D01*
X55681612Y-42577714D01*
X55681610Y-42577713D01*
X55624653Y-42548691D01*
X55499223Y-42484781D01*
X55304534Y-42421522D01*
X55129995Y-42393878D01*
X55102352Y-42389500D01*
X54897648Y-42389500D01*
X54873329Y-42393351D01*
X54695465Y-42421522D01*
X54500776Y-42484781D01*
X54318386Y-42577715D01*
X54152786Y-42698028D01*
X54008028Y-42842786D01*
X53887715Y-43008386D01*
X53794781Y-43190776D01*
X53731522Y-43385465D01*
X53699500Y-43587648D01*
X53234095Y-43587648D01*
X53235354Y-43586069D01*
X53398882Y-43325815D01*
X53532243Y-43048889D01*
X53633759Y-42758773D01*
X53702154Y-42459114D01*
X53736568Y-42153682D01*
X53736568Y-41846318D01*
X53702154Y-41540886D01*
X53633759Y-41241227D01*
X53532243Y-40951111D01*
X53398882Y-40674185D01*
X53235354Y-40413931D01*
X53066196Y-40201813D01*
X53039787Y-40137126D01*
X53052544Y-40068430D01*
X53100414Y-40017537D01*
X53163143Y-40000500D01*
X107836857Y-40000500D01*
X107903896Y-40020185D01*
G37*
%TD.AperFunction*%
%TD*%
M02*
