%TF.GenerationSoftware,KiCad,Pcbnew,9.0.7*%
%TF.CreationDate,2026-05-16T09:32:26+05:30*%
%TF.ProjectId,priyaa_1,70726979-6161-45f3-912e-6b696361645f,rev?*%
%TF.SameCoordinates,Original*%
%TF.FileFunction,Legend,Top*%
%TF.FilePolarity,Positive*%
%FSLAX46Y46*%
G04 Gerber Fmt 4.6, Leading zero omitted, Abs format (unit mm)*
G04 Created by KiCad (PCBNEW 9.0.7) date 2026-05-16 09:32:26*
%MOMM*%
%LPD*%
G01*
G04 APERTURE LIST*
%ADD10C,0.150000*%
%ADD11C,0.120000*%
G04 APERTURE END LIST*
D10*
X62074819Y-63583333D02*
X62789104Y-63583333D01*
X62789104Y-63583333D02*
X62931961Y-63630952D01*
X62931961Y-63630952D02*
X63027200Y-63726190D01*
X63027200Y-63726190D02*
X63074819Y-63869047D01*
X63074819Y-63869047D02*
X63074819Y-63964285D01*
X63074819Y-62583333D02*
X63074819Y-63154761D01*
X63074819Y-62869047D02*
X62074819Y-62869047D01*
X62074819Y-62869047D02*
X62217676Y-62964285D01*
X62217676Y-62964285D02*
X62312914Y-63059523D01*
X62312914Y-63059523D02*
X62360533Y-63154761D01*
X92023333Y-78824819D02*
X91690000Y-78348628D01*
X91451905Y-78824819D02*
X91451905Y-77824819D01*
X91451905Y-77824819D02*
X91832857Y-77824819D01*
X91832857Y-77824819D02*
X91928095Y-77872438D01*
X91928095Y-77872438D02*
X91975714Y-77920057D01*
X91975714Y-77920057D02*
X92023333Y-78015295D01*
X92023333Y-78015295D02*
X92023333Y-78158152D01*
X92023333Y-78158152D02*
X91975714Y-78253390D01*
X91975714Y-78253390D02*
X91928095Y-78301009D01*
X91928095Y-78301009D02*
X91832857Y-78348628D01*
X91832857Y-78348628D02*
X91451905Y-78348628D01*
X92975714Y-78824819D02*
X92404286Y-78824819D01*
X92690000Y-78824819D02*
X92690000Y-77824819D01*
X92690000Y-77824819D02*
X92594762Y-77967676D01*
X92594762Y-77967676D02*
X92499524Y-78062914D01*
X92499524Y-78062914D02*
X92404286Y-78110533D01*
X69924819Y-64318094D02*
X68924819Y-64318094D01*
X68924819Y-64318094D02*
X68924819Y-64079999D01*
X68924819Y-64079999D02*
X68972438Y-63937142D01*
X68972438Y-63937142D02*
X69067676Y-63841904D01*
X69067676Y-63841904D02*
X69162914Y-63794285D01*
X69162914Y-63794285D02*
X69353390Y-63746666D01*
X69353390Y-63746666D02*
X69496247Y-63746666D01*
X69496247Y-63746666D02*
X69686723Y-63794285D01*
X69686723Y-63794285D02*
X69781961Y-63841904D01*
X69781961Y-63841904D02*
X69877200Y-63937142D01*
X69877200Y-63937142D02*
X69924819Y-64079999D01*
X69924819Y-64079999D02*
X69924819Y-64318094D01*
X69924819Y-62794285D02*
X69924819Y-63365713D01*
X69924819Y-63079999D02*
X68924819Y-63079999D01*
X68924819Y-63079999D02*
X69067676Y-63175237D01*
X69067676Y-63175237D02*
X69162914Y-63270475D01*
X69162914Y-63270475D02*
X69210533Y-63365713D01*
X69554819Y-58761904D02*
X68554819Y-58761904D01*
X69554819Y-58190476D02*
X68983390Y-58619047D01*
X68554819Y-58190476D02*
X69126247Y-58761904D01*
X110574819Y-73083333D02*
X111289104Y-73083333D01*
X111289104Y-73083333D02*
X111431961Y-73130952D01*
X111431961Y-73130952D02*
X111527200Y-73226190D01*
X111527200Y-73226190D02*
X111574819Y-73369047D01*
X111574819Y-73369047D02*
X111574819Y-73464285D01*
X110670057Y-72654761D02*
X110622438Y-72607142D01*
X110622438Y-72607142D02*
X110574819Y-72511904D01*
X110574819Y-72511904D02*
X110574819Y-72273809D01*
X110574819Y-72273809D02*
X110622438Y-72178571D01*
X110622438Y-72178571D02*
X110670057Y-72130952D01*
X110670057Y-72130952D02*
X110765295Y-72083333D01*
X110765295Y-72083333D02*
X110860533Y-72083333D01*
X110860533Y-72083333D02*
X111003390Y-72130952D01*
X111003390Y-72130952D02*
X111574819Y-72702380D01*
X111574819Y-72702380D02*
X111574819Y-72083333D01*
X93609580Y-64298989D02*
X93657200Y-64346608D01*
X93657200Y-64346608D02*
X93704819Y-64489465D01*
X93704819Y-64489465D02*
X93704819Y-64584703D01*
X93704819Y-64584703D02*
X93657200Y-64727560D01*
X93657200Y-64727560D02*
X93561961Y-64822798D01*
X93561961Y-64822798D02*
X93466723Y-64870417D01*
X93466723Y-64870417D02*
X93276247Y-64918036D01*
X93276247Y-64918036D02*
X93133390Y-64918036D01*
X93133390Y-64918036D02*
X92942914Y-64870417D01*
X92942914Y-64870417D02*
X92847676Y-64822798D01*
X92847676Y-64822798D02*
X92752438Y-64727560D01*
X92752438Y-64727560D02*
X92704819Y-64584703D01*
X92704819Y-64584703D02*
X92704819Y-64489465D01*
X92704819Y-64489465D02*
X92752438Y-64346608D01*
X92752438Y-64346608D02*
X92800057Y-64298989D01*
X92800057Y-63918036D02*
X92752438Y-63870417D01*
X92752438Y-63870417D02*
X92704819Y-63775179D01*
X92704819Y-63775179D02*
X92704819Y-63537084D01*
X92704819Y-63537084D02*
X92752438Y-63441846D01*
X92752438Y-63441846D02*
X92800057Y-63394227D01*
X92800057Y-63394227D02*
X92895295Y-63346608D01*
X92895295Y-63346608D02*
X92990533Y-63346608D01*
X92990533Y-63346608D02*
X93133390Y-63394227D01*
X93133390Y-63394227D02*
X93704819Y-63965655D01*
X93704819Y-63965655D02*
X93704819Y-63346608D01*
X61756905Y-71494819D02*
X61756905Y-70494819D01*
X61756905Y-70494819D02*
X61995000Y-70494819D01*
X61995000Y-70494819D02*
X62137857Y-70542438D01*
X62137857Y-70542438D02*
X62233095Y-70637676D01*
X62233095Y-70637676D02*
X62280714Y-70732914D01*
X62280714Y-70732914D02*
X62328333Y-70923390D01*
X62328333Y-70923390D02*
X62328333Y-71066247D01*
X62328333Y-71066247D02*
X62280714Y-71256723D01*
X62280714Y-71256723D02*
X62233095Y-71351961D01*
X62233095Y-71351961D02*
X62137857Y-71447200D01*
X62137857Y-71447200D02*
X61995000Y-71494819D01*
X61995000Y-71494819D02*
X61756905Y-71494819D01*
X62661667Y-70494819D02*
X63328333Y-70494819D01*
X63328333Y-70494819D02*
X62899762Y-71494819D01*
X78424819Y-64818094D02*
X77424819Y-64818094D01*
X77424819Y-64818094D02*
X77424819Y-64579999D01*
X77424819Y-64579999D02*
X77472438Y-64437142D01*
X77472438Y-64437142D02*
X77567676Y-64341904D01*
X77567676Y-64341904D02*
X77662914Y-64294285D01*
X77662914Y-64294285D02*
X77853390Y-64246666D01*
X77853390Y-64246666D02*
X77996247Y-64246666D01*
X77996247Y-64246666D02*
X78186723Y-64294285D01*
X78186723Y-64294285D02*
X78281961Y-64341904D01*
X78281961Y-64341904D02*
X78377200Y-64437142D01*
X78377200Y-64437142D02*
X78424819Y-64579999D01*
X78424819Y-64579999D02*
X78424819Y-64818094D01*
X77424819Y-63913332D02*
X77424819Y-63294285D01*
X77424819Y-63294285D02*
X77805771Y-63627618D01*
X77805771Y-63627618D02*
X77805771Y-63484761D01*
X77805771Y-63484761D02*
X77853390Y-63389523D01*
X77853390Y-63389523D02*
X77901009Y-63341904D01*
X77901009Y-63341904D02*
X77996247Y-63294285D01*
X77996247Y-63294285D02*
X78234342Y-63294285D01*
X78234342Y-63294285D02*
X78329580Y-63341904D01*
X78329580Y-63341904D02*
X78377200Y-63389523D01*
X78377200Y-63389523D02*
X78424819Y-63484761D01*
X78424819Y-63484761D02*
X78424819Y-63770475D01*
X78424819Y-63770475D02*
X78377200Y-63865713D01*
X78377200Y-63865713D02*
X78329580Y-63913332D01*
X78054819Y-59261904D02*
X77054819Y-59261904D01*
X78054819Y-58690476D02*
X77483390Y-59119047D01*
X77054819Y-58690476D02*
X77626247Y-59261904D01*
X105733333Y-61109580D02*
X105685714Y-61157200D01*
X105685714Y-61157200D02*
X105542857Y-61204819D01*
X105542857Y-61204819D02*
X105447619Y-61204819D01*
X105447619Y-61204819D02*
X105304762Y-61157200D01*
X105304762Y-61157200D02*
X105209524Y-61061961D01*
X105209524Y-61061961D02*
X105161905Y-60966723D01*
X105161905Y-60966723D02*
X105114286Y-60776247D01*
X105114286Y-60776247D02*
X105114286Y-60633390D01*
X105114286Y-60633390D02*
X105161905Y-60442914D01*
X105161905Y-60442914D02*
X105209524Y-60347676D01*
X105209524Y-60347676D02*
X105304762Y-60252438D01*
X105304762Y-60252438D02*
X105447619Y-60204819D01*
X105447619Y-60204819D02*
X105542857Y-60204819D01*
X105542857Y-60204819D02*
X105685714Y-60252438D01*
X105685714Y-60252438D02*
X105733333Y-60300057D01*
X106066667Y-60204819D02*
X106685714Y-60204819D01*
X106685714Y-60204819D02*
X106352381Y-60585771D01*
X106352381Y-60585771D02*
X106495238Y-60585771D01*
X106495238Y-60585771D02*
X106590476Y-60633390D01*
X106590476Y-60633390D02*
X106638095Y-60681009D01*
X106638095Y-60681009D02*
X106685714Y-60776247D01*
X106685714Y-60776247D02*
X106685714Y-61014342D01*
X106685714Y-61014342D02*
X106638095Y-61109580D01*
X106638095Y-61109580D02*
X106590476Y-61157200D01*
X106590476Y-61157200D02*
X106495238Y-61204819D01*
X106495238Y-61204819D02*
X106209524Y-61204819D01*
X106209524Y-61204819D02*
X106114286Y-61157200D01*
X106114286Y-61157200D02*
X106066667Y-61109580D01*
X83924819Y-80318094D02*
X82924819Y-80318094D01*
X82924819Y-80318094D02*
X82924819Y-80079999D01*
X82924819Y-80079999D02*
X82972438Y-79937142D01*
X82972438Y-79937142D02*
X83067676Y-79841904D01*
X83067676Y-79841904D02*
X83162914Y-79794285D01*
X83162914Y-79794285D02*
X83353390Y-79746666D01*
X83353390Y-79746666D02*
X83496247Y-79746666D01*
X83496247Y-79746666D02*
X83686723Y-79794285D01*
X83686723Y-79794285D02*
X83781961Y-79841904D01*
X83781961Y-79841904D02*
X83877200Y-79937142D01*
X83877200Y-79937142D02*
X83924819Y-80079999D01*
X83924819Y-80079999D02*
X83924819Y-80318094D01*
X83258152Y-78889523D02*
X83924819Y-78889523D01*
X82877200Y-79127618D02*
X83591485Y-79365713D01*
X83591485Y-79365713D02*
X83591485Y-78746666D01*
X83554819Y-74761904D02*
X82554819Y-74761904D01*
X83554819Y-74190476D02*
X82983390Y-74619047D01*
X82554819Y-74190476D02*
X83126247Y-74761904D01*
X86833333Y-51359580D02*
X86785714Y-51407200D01*
X86785714Y-51407200D02*
X86642857Y-51454819D01*
X86642857Y-51454819D02*
X86547619Y-51454819D01*
X86547619Y-51454819D02*
X86404762Y-51407200D01*
X86404762Y-51407200D02*
X86309524Y-51311961D01*
X86309524Y-51311961D02*
X86261905Y-51216723D01*
X86261905Y-51216723D02*
X86214286Y-51026247D01*
X86214286Y-51026247D02*
X86214286Y-50883390D01*
X86214286Y-50883390D02*
X86261905Y-50692914D01*
X86261905Y-50692914D02*
X86309524Y-50597676D01*
X86309524Y-50597676D02*
X86404762Y-50502438D01*
X86404762Y-50502438D02*
X86547619Y-50454819D01*
X86547619Y-50454819D02*
X86642857Y-50454819D01*
X86642857Y-50454819D02*
X86785714Y-50502438D01*
X86785714Y-50502438D02*
X86833333Y-50550057D01*
X87785714Y-51454819D02*
X87214286Y-51454819D01*
X87500000Y-51454819D02*
X87500000Y-50454819D01*
X87500000Y-50454819D02*
X87404762Y-50597676D01*
X87404762Y-50597676D02*
X87309524Y-50692914D01*
X87309524Y-50692914D02*
X87214286Y-50740533D01*
X91198095Y-40354819D02*
X91198095Y-41164342D01*
X91198095Y-41164342D02*
X91245714Y-41259580D01*
X91245714Y-41259580D02*
X91293333Y-41307200D01*
X91293333Y-41307200D02*
X91388571Y-41354819D01*
X91388571Y-41354819D02*
X91579047Y-41354819D01*
X91579047Y-41354819D02*
X91674285Y-41307200D01*
X91674285Y-41307200D02*
X91721904Y-41259580D01*
X91721904Y-41259580D02*
X91769523Y-41164342D01*
X91769523Y-41164342D02*
X91769523Y-40354819D01*
X92769523Y-41354819D02*
X92198095Y-41354819D01*
X92483809Y-41354819D02*
X92483809Y-40354819D01*
X92483809Y-40354819D02*
X92388571Y-40497676D01*
X92388571Y-40497676D02*
X92293333Y-40592914D01*
X92293333Y-40592914D02*
X92198095Y-40640533D01*
X61023333Y-86824819D02*
X60690000Y-86348628D01*
X60451905Y-86824819D02*
X60451905Y-85824819D01*
X60451905Y-85824819D02*
X60832857Y-85824819D01*
X60832857Y-85824819D02*
X60928095Y-85872438D01*
X60928095Y-85872438D02*
X60975714Y-85920057D01*
X60975714Y-85920057D02*
X61023333Y-86015295D01*
X61023333Y-86015295D02*
X61023333Y-86158152D01*
X61023333Y-86158152D02*
X60975714Y-86253390D01*
X60975714Y-86253390D02*
X60928095Y-86301009D01*
X60928095Y-86301009D02*
X60832857Y-86348628D01*
X60832857Y-86348628D02*
X60451905Y-86348628D01*
X61880476Y-86158152D02*
X61880476Y-86824819D01*
X61642381Y-85777200D02*
X61404286Y-86491485D01*
X61404286Y-86491485D02*
X62023333Y-86491485D01*
X99424819Y-69048094D02*
X98424819Y-69048094D01*
X98424819Y-69048094D02*
X98424819Y-68809999D01*
X98424819Y-68809999D02*
X98472438Y-68667142D01*
X98472438Y-68667142D02*
X98567676Y-68571904D01*
X98567676Y-68571904D02*
X98662914Y-68524285D01*
X98662914Y-68524285D02*
X98853390Y-68476666D01*
X98853390Y-68476666D02*
X98996247Y-68476666D01*
X98996247Y-68476666D02*
X99186723Y-68524285D01*
X99186723Y-68524285D02*
X99281961Y-68571904D01*
X99281961Y-68571904D02*
X99377200Y-68667142D01*
X99377200Y-68667142D02*
X99424819Y-68809999D01*
X99424819Y-68809999D02*
X99424819Y-69048094D01*
X98424819Y-67619523D02*
X98424819Y-67809999D01*
X98424819Y-67809999D02*
X98472438Y-67905237D01*
X98472438Y-67905237D02*
X98520057Y-67952856D01*
X98520057Y-67952856D02*
X98662914Y-68048094D01*
X98662914Y-68048094D02*
X98853390Y-68095713D01*
X98853390Y-68095713D02*
X99234342Y-68095713D01*
X99234342Y-68095713D02*
X99329580Y-68048094D01*
X99329580Y-68048094D02*
X99377200Y-68000475D01*
X99377200Y-68000475D02*
X99424819Y-67905237D01*
X99424819Y-67905237D02*
X99424819Y-67714761D01*
X99424819Y-67714761D02*
X99377200Y-67619523D01*
X99377200Y-67619523D02*
X99329580Y-67571904D01*
X99329580Y-67571904D02*
X99234342Y-67524285D01*
X99234342Y-67524285D02*
X98996247Y-67524285D01*
X98996247Y-67524285D02*
X98901009Y-67571904D01*
X98901009Y-67571904D02*
X98853390Y-67619523D01*
X98853390Y-67619523D02*
X98805771Y-67714761D01*
X98805771Y-67714761D02*
X98805771Y-67905237D01*
X98805771Y-67905237D02*
X98853390Y-68000475D01*
X98853390Y-68000475D02*
X98901009Y-68048094D01*
X98901009Y-68048094D02*
X98996247Y-68095713D01*
X98854819Y-64761904D02*
X97854819Y-64761904D01*
X98854819Y-64190476D02*
X98283390Y-64619047D01*
X97854819Y-64190476D02*
X98426247Y-64761904D01*
X75924819Y-81318094D02*
X74924819Y-81318094D01*
X74924819Y-81318094D02*
X74924819Y-81079999D01*
X74924819Y-81079999D02*
X74972438Y-80937142D01*
X74972438Y-80937142D02*
X75067676Y-80841904D01*
X75067676Y-80841904D02*
X75162914Y-80794285D01*
X75162914Y-80794285D02*
X75353390Y-80746666D01*
X75353390Y-80746666D02*
X75496247Y-80746666D01*
X75496247Y-80746666D02*
X75686723Y-80794285D01*
X75686723Y-80794285D02*
X75781961Y-80841904D01*
X75781961Y-80841904D02*
X75877200Y-80937142D01*
X75877200Y-80937142D02*
X75924819Y-81079999D01*
X75924819Y-81079999D02*
X75924819Y-81318094D01*
X75020057Y-80365713D02*
X74972438Y-80318094D01*
X74972438Y-80318094D02*
X74924819Y-80222856D01*
X74924819Y-80222856D02*
X74924819Y-79984761D01*
X74924819Y-79984761D02*
X74972438Y-79889523D01*
X74972438Y-79889523D02*
X75020057Y-79841904D01*
X75020057Y-79841904D02*
X75115295Y-79794285D01*
X75115295Y-79794285D02*
X75210533Y-79794285D01*
X75210533Y-79794285D02*
X75353390Y-79841904D01*
X75353390Y-79841904D02*
X75924819Y-80413332D01*
X75924819Y-80413332D02*
X75924819Y-79794285D01*
X75554819Y-75761904D02*
X74554819Y-75761904D01*
X75554819Y-75190476D02*
X74983390Y-75619047D01*
X74554819Y-75190476D02*
X75126247Y-75761904D01*
X92023333Y-84824819D02*
X91690000Y-84348628D01*
X91451905Y-84824819D02*
X91451905Y-83824819D01*
X91451905Y-83824819D02*
X91832857Y-83824819D01*
X91832857Y-83824819D02*
X91928095Y-83872438D01*
X91928095Y-83872438D02*
X91975714Y-83920057D01*
X91975714Y-83920057D02*
X92023333Y-84015295D01*
X92023333Y-84015295D02*
X92023333Y-84158152D01*
X92023333Y-84158152D02*
X91975714Y-84253390D01*
X91975714Y-84253390D02*
X91928095Y-84301009D01*
X91928095Y-84301009D02*
X91832857Y-84348628D01*
X91832857Y-84348628D02*
X91451905Y-84348628D01*
X92404286Y-83920057D02*
X92451905Y-83872438D01*
X92451905Y-83872438D02*
X92547143Y-83824819D01*
X92547143Y-83824819D02*
X92785238Y-83824819D01*
X92785238Y-83824819D02*
X92880476Y-83872438D01*
X92880476Y-83872438D02*
X92928095Y-83920057D01*
X92928095Y-83920057D02*
X92975714Y-84015295D01*
X92975714Y-84015295D02*
X92975714Y-84110533D01*
X92975714Y-84110533D02*
X92928095Y-84253390D01*
X92928095Y-84253390D02*
X92356667Y-84824819D01*
X92356667Y-84824819D02*
X92975714Y-84824819D01*
X57824819Y-47666666D02*
X57348628Y-47999999D01*
X57824819Y-48238094D02*
X56824819Y-48238094D01*
X56824819Y-48238094D02*
X56824819Y-47857142D01*
X56824819Y-47857142D02*
X56872438Y-47761904D01*
X56872438Y-47761904D02*
X56920057Y-47714285D01*
X56920057Y-47714285D02*
X57015295Y-47666666D01*
X57015295Y-47666666D02*
X57158152Y-47666666D01*
X57158152Y-47666666D02*
X57253390Y-47714285D01*
X57253390Y-47714285D02*
X57301009Y-47761904D01*
X57301009Y-47761904D02*
X57348628Y-47857142D01*
X57348628Y-47857142D02*
X57348628Y-48238094D01*
X56824819Y-47333332D02*
X56824819Y-46714285D01*
X56824819Y-46714285D02*
X57205771Y-47047618D01*
X57205771Y-47047618D02*
X57205771Y-46904761D01*
X57205771Y-46904761D02*
X57253390Y-46809523D01*
X57253390Y-46809523D02*
X57301009Y-46761904D01*
X57301009Y-46761904D02*
X57396247Y-46714285D01*
X57396247Y-46714285D02*
X57634342Y-46714285D01*
X57634342Y-46714285D02*
X57729580Y-46761904D01*
X57729580Y-46761904D02*
X57777200Y-46809523D01*
X57777200Y-46809523D02*
X57824819Y-46904761D01*
X57824819Y-46904761D02*
X57824819Y-47190475D01*
X57824819Y-47190475D02*
X57777200Y-47285713D01*
X57777200Y-47285713D02*
X57729580Y-47333332D01*
X70333333Y-40609580D02*
X70285714Y-40657200D01*
X70285714Y-40657200D02*
X70142857Y-40704819D01*
X70142857Y-40704819D02*
X70047619Y-40704819D01*
X70047619Y-40704819D02*
X69904762Y-40657200D01*
X69904762Y-40657200D02*
X69809524Y-40561961D01*
X69809524Y-40561961D02*
X69761905Y-40466723D01*
X69761905Y-40466723D02*
X69714286Y-40276247D01*
X69714286Y-40276247D02*
X69714286Y-40133390D01*
X69714286Y-40133390D02*
X69761905Y-39942914D01*
X69761905Y-39942914D02*
X69809524Y-39847676D01*
X69809524Y-39847676D02*
X69904762Y-39752438D01*
X69904762Y-39752438D02*
X70047619Y-39704819D01*
X70047619Y-39704819D02*
X70142857Y-39704819D01*
X70142857Y-39704819D02*
X70285714Y-39752438D01*
X70285714Y-39752438D02*
X70333333Y-39800057D01*
X71190476Y-40038152D02*
X71190476Y-40704819D01*
X70952381Y-39657200D02*
X70714286Y-40371485D01*
X70714286Y-40371485D02*
X71333333Y-40371485D01*
X98424819Y-55548094D02*
X97424819Y-55548094D01*
X97424819Y-55548094D02*
X97424819Y-55309999D01*
X97424819Y-55309999D02*
X97472438Y-55167142D01*
X97472438Y-55167142D02*
X97567676Y-55071904D01*
X97567676Y-55071904D02*
X97662914Y-55024285D01*
X97662914Y-55024285D02*
X97853390Y-54976666D01*
X97853390Y-54976666D02*
X97996247Y-54976666D01*
X97996247Y-54976666D02*
X98186723Y-55024285D01*
X98186723Y-55024285D02*
X98281961Y-55071904D01*
X98281961Y-55071904D02*
X98377200Y-55167142D01*
X98377200Y-55167142D02*
X98424819Y-55309999D01*
X98424819Y-55309999D02*
X98424819Y-55548094D01*
X97424819Y-54071904D02*
X97424819Y-54548094D01*
X97424819Y-54548094D02*
X97901009Y-54595713D01*
X97901009Y-54595713D02*
X97853390Y-54548094D01*
X97853390Y-54548094D02*
X97805771Y-54452856D01*
X97805771Y-54452856D02*
X97805771Y-54214761D01*
X97805771Y-54214761D02*
X97853390Y-54119523D01*
X97853390Y-54119523D02*
X97901009Y-54071904D01*
X97901009Y-54071904D02*
X97996247Y-54024285D01*
X97996247Y-54024285D02*
X98234342Y-54024285D01*
X98234342Y-54024285D02*
X98329580Y-54071904D01*
X98329580Y-54071904D02*
X98377200Y-54119523D01*
X98377200Y-54119523D02*
X98424819Y-54214761D01*
X98424819Y-54214761D02*
X98424819Y-54452856D01*
X98424819Y-54452856D02*
X98377200Y-54548094D01*
X98377200Y-54548094D02*
X98329580Y-54595713D01*
X97854819Y-51261904D02*
X96854819Y-51261904D01*
X97854819Y-50690476D02*
X97283390Y-51119047D01*
X96854819Y-50690476D02*
X97426247Y-51261904D01*
D11*
%TO.C,J1*%
X53580000Y-57880000D02*
X61620000Y-57880000D01*
X53580000Y-60700000D02*
X53580000Y-57880000D01*
X53580000Y-68620000D02*
X53580000Y-61300000D01*
X55700000Y-57880000D02*
X55700000Y-59120000D01*
X55700000Y-62880000D02*
X55700000Y-65457000D01*
X55700000Y-66543000D02*
X55700000Y-68620000D01*
X57000000Y-57880000D02*
X57000000Y-59120000D01*
X57000000Y-62880000D02*
X57000000Y-64188000D01*
X57000000Y-67812000D02*
X57000000Y-68620000D01*
X58000000Y-57880000D02*
X58000000Y-59120000D01*
X58000000Y-62880000D02*
X58000000Y-64188000D01*
X58000000Y-67812000D02*
X58000000Y-68620000D01*
X61620000Y-57880000D02*
X61620000Y-68620000D01*
X61620000Y-68620000D02*
X53580000Y-68620000D01*
X53580000Y-61000000D02*
X52970000Y-61440000D01*
X52970000Y-60560000D01*
X53580000Y-61000000D01*
G36*
X53580000Y-61000000D02*
G01*
X52970000Y-61440000D01*
X52970000Y-60560000D01*
X53580000Y-61000000D01*
G37*
%TO.C,R1*%
X88920000Y-74630000D02*
X88920000Y-74960000D01*
X88920000Y-77370000D02*
X88920000Y-77040000D01*
X95460000Y-74630000D02*
X88920000Y-74630000D01*
X95460000Y-74960000D02*
X95460000Y-74630000D01*
X95460000Y-77040000D02*
X95460000Y-77370000D01*
X95460000Y-77370000D02*
X88920000Y-77370000D01*
%TO.C,D1*%
X67000000Y-59840000D02*
X67000000Y-60860000D01*
X67000000Y-67320000D02*
X67000000Y-66300000D01*
X68470000Y-61640000D02*
X65530000Y-61640000D01*
X68470000Y-61760000D02*
X65530000Y-61760000D01*
X68470000Y-61880000D02*
X65530000Y-61880000D01*
X68470000Y-60860000D02*
X65530000Y-60860000D01*
X65530000Y-66300000D01*
X68470000Y-66300000D01*
X68470000Y-60860000D01*
%TO.C,J2*%
X102080000Y-67380000D02*
X110120000Y-67380000D01*
X102080000Y-70200000D02*
X102080000Y-67380000D01*
X102080000Y-78120000D02*
X102080000Y-70800000D01*
X104200000Y-67380000D02*
X104200000Y-68620000D01*
X104200000Y-72380000D02*
X104200000Y-74957000D01*
X104200000Y-76043000D02*
X104200000Y-78120000D01*
X105500000Y-67380000D02*
X105500000Y-68620000D01*
X105500000Y-72380000D02*
X105500000Y-73688000D01*
X105500000Y-77312000D02*
X105500000Y-78120000D01*
X106500000Y-67380000D02*
X106500000Y-68620000D01*
X106500000Y-72380000D02*
X106500000Y-73688000D01*
X106500000Y-77312000D02*
X106500000Y-78120000D01*
X110120000Y-67380000D02*
X110120000Y-78120000D01*
X110120000Y-78120000D02*
X102080000Y-78120000D01*
X102080000Y-70500000D02*
X101470000Y-70940000D01*
X101470000Y-70060000D01*
X102080000Y-70500000D01*
G36*
X102080000Y-70500000D02*
G01*
X101470000Y-70940000D01*
X101470000Y-70060000D01*
X102080000Y-70500000D01*
G37*
%TO.C,C2*%
X85760000Y-65412323D02*
X82083000Y-65412323D01*
X85760000Y-65452323D02*
X82093000Y-65452323D01*
X85760000Y-65492323D02*
X82104000Y-65492323D01*
X85760000Y-65532323D02*
X82115000Y-65532323D01*
X85760000Y-65572323D02*
X82127000Y-65572323D01*
X85760000Y-65612323D02*
X82139000Y-65612323D01*
X85760000Y-65652323D02*
X82151000Y-65652323D01*
X85760000Y-65692323D02*
X82163000Y-65692323D01*
X85760000Y-65732323D02*
X82176000Y-65732323D01*
X85760000Y-65772323D02*
X82190000Y-65772323D01*
X85760000Y-65812323D02*
X82203000Y-65812323D01*
X85760000Y-65852323D02*
X82218000Y-65852323D01*
X85760000Y-65892323D02*
X82232000Y-65892323D01*
X85760000Y-65932323D02*
X82247000Y-65932323D01*
X85760000Y-65972323D02*
X82262000Y-65972323D01*
X85760000Y-66012323D02*
X82278000Y-66012323D01*
X85760000Y-66052323D02*
X82294000Y-66052323D01*
X85760000Y-66092323D02*
X82310000Y-66092323D01*
X85760000Y-66132323D02*
X82327000Y-66132323D01*
X85760000Y-66172323D02*
X82344000Y-66172323D01*
X85760000Y-66212323D02*
X82362000Y-66212323D01*
X85760000Y-66252323D02*
X82380000Y-66252323D01*
X85760000Y-66292323D02*
X82398000Y-66292323D01*
X85760000Y-66332323D02*
X82417000Y-66332323D01*
X85760000Y-66372323D02*
X82436000Y-66372323D01*
X85760000Y-66412323D02*
X82456000Y-66412323D01*
X85760000Y-66452323D02*
X82476000Y-66452323D01*
X85760000Y-66492323D02*
X82496000Y-66492323D01*
X85760000Y-66532323D02*
X82517000Y-66532323D01*
X85760000Y-66572323D02*
X82539000Y-66572323D01*
X85760000Y-66612323D02*
X82561000Y-66612323D01*
X85760000Y-66652323D02*
X82583000Y-66652323D01*
X85760000Y-66692323D02*
X82606000Y-66692323D01*
X85760000Y-66732323D02*
X82629000Y-66732323D01*
X85760000Y-66772323D02*
X82653000Y-66772323D01*
X85760000Y-66812323D02*
X82677000Y-66812323D01*
X85760000Y-66852323D02*
X82702000Y-66852323D01*
X85760000Y-66892323D02*
X82728000Y-66892323D01*
X85760000Y-66932323D02*
X82753000Y-66932323D01*
X85760000Y-66972323D02*
X82780000Y-66972323D01*
X85760000Y-67012323D02*
X82807000Y-67012323D01*
X85760000Y-67052323D02*
X82834000Y-67052323D01*
X85760000Y-67092323D02*
X82862000Y-67092323D01*
X85760000Y-67132323D02*
X82891000Y-67132323D01*
X85760000Y-67172323D02*
X82920000Y-67172323D01*
X85760000Y-67212323D02*
X82950000Y-67212323D01*
X85760000Y-67252323D02*
X82980000Y-67252323D01*
X85760000Y-67292323D02*
X83012000Y-67292323D01*
X85760000Y-67332323D02*
X83043000Y-67332323D01*
X85760000Y-67372323D02*
X83076000Y-67372323D01*
X85760000Y-67412323D02*
X83109000Y-67412323D01*
X85760000Y-67452323D02*
X83142000Y-67452323D01*
X85760000Y-67492323D02*
X83177000Y-67492323D01*
X85760000Y-67532323D02*
X83212000Y-67532323D01*
X85760000Y-67572323D02*
X83248000Y-67572323D01*
X85760000Y-67612323D02*
X83284000Y-67612323D01*
X85760000Y-67652323D02*
X83322000Y-67652323D01*
X85760000Y-67692323D02*
X83360000Y-67692323D01*
X85760000Y-67732323D02*
X83399000Y-67732323D01*
X85760000Y-67772323D02*
X83439000Y-67772323D01*
X85760000Y-67812323D02*
X83480000Y-67812323D01*
X85760000Y-67852323D02*
X83522000Y-67852323D01*
X87599000Y-69212323D02*
X86401000Y-69212323D01*
X87862000Y-69172323D02*
X86138000Y-69172323D01*
X88062000Y-69132323D02*
X85938000Y-69132323D01*
X88230000Y-69092323D02*
X85770000Y-69092323D01*
X88377000Y-69052323D02*
X85623000Y-69052323D01*
X88509000Y-69012323D02*
X85491000Y-69012323D01*
X88630000Y-68972323D02*
X85370000Y-68972323D01*
X88742000Y-68932323D02*
X85258000Y-68932323D01*
X88846000Y-68892323D02*
X85154000Y-68892323D01*
X88944000Y-68852323D02*
X85056000Y-68852323D01*
X89037000Y-68812323D02*
X84963000Y-68812323D01*
X89124000Y-68772323D02*
X84876000Y-68772323D01*
X89208000Y-68732323D02*
X84792000Y-68732323D01*
X89288000Y-68692323D02*
X84712000Y-68692323D01*
X89365000Y-68652323D02*
X84635000Y-68652323D01*
X89439000Y-68612323D02*
X84561000Y-68612323D01*
X89510000Y-68572323D02*
X84490000Y-68572323D01*
X89578000Y-68532323D02*
X84422000Y-68532323D01*
X89644000Y-68492323D02*
X84356000Y-68492323D01*
X89708000Y-68452323D02*
X84292000Y-68452323D01*
X89770000Y-68412323D02*
X84230000Y-68412323D01*
X89830000Y-68372323D02*
X84170000Y-68372323D01*
X89875000Y-58652677D02*
X89875000Y-59652677D01*
X89888000Y-68332323D02*
X84112000Y-68332323D01*
X89945000Y-68292323D02*
X84055000Y-68292323D01*
X90000000Y-68252323D02*
X84000000Y-68252323D01*
X90053000Y-68212323D02*
X83947000Y-68212323D01*
X90105000Y-68172323D02*
X83895000Y-68172323D01*
X90156000Y-68132323D02*
X83844000Y-68132323D01*
X90205000Y-68092323D02*
X83795000Y-68092323D01*
X90254000Y-68052323D02*
X83746000Y-68052323D01*
X90301000Y-68012323D02*
X83699000Y-68012323D01*
X90347000Y-67972323D02*
X83653000Y-67972323D01*
X90375000Y-59152677D02*
X89375000Y-59152677D01*
X90391000Y-67932323D02*
X83609000Y-67932323D01*
X90435000Y-67892323D02*
X83565000Y-67892323D01*
X90478000Y-67852323D02*
X88240000Y-67852323D01*
X90520000Y-67812323D02*
X88240000Y-67812323D01*
X90561000Y-67772323D02*
X88240000Y-67772323D01*
X90601000Y-67732323D02*
X88240000Y-67732323D01*
X90640000Y-67692323D02*
X88240000Y-67692323D01*
X90678000Y-67652323D02*
X88240000Y-67652323D01*
X90716000Y-67612323D02*
X88240000Y-67612323D01*
X90752000Y-67572323D02*
X88240000Y-67572323D01*
X90788000Y-67532323D02*
X88240000Y-67532323D01*
X90823000Y-67492323D02*
X88240000Y-67492323D01*
X90858000Y-67452323D02*
X88240000Y-67452323D01*
X90891000Y-67412323D02*
X88240000Y-67412323D01*
X90924000Y-67372323D02*
X88240000Y-67372323D01*
X90957000Y-67332323D02*
X88240000Y-67332323D01*
X90988000Y-67292323D02*
X88240000Y-67292323D01*
X91020000Y-67252323D02*
X88240000Y-67252323D01*
X91050000Y-67212323D02*
X88240000Y-67212323D01*
X91080000Y-67172323D02*
X88240000Y-67172323D01*
X91109000Y-67132323D02*
X88240000Y-67132323D01*
X91138000Y-67092323D02*
X88240000Y-67092323D01*
X91166000Y-67052323D02*
X88240000Y-67052323D01*
X91193000Y-67012323D02*
X88240000Y-67012323D01*
X91220000Y-66972323D02*
X88240000Y-66972323D01*
X91247000Y-66932323D02*
X88240000Y-66932323D01*
X91272000Y-66892323D02*
X88240000Y-66892323D01*
X91298000Y-66852323D02*
X88240000Y-66852323D01*
X91323000Y-66812323D02*
X88240000Y-66812323D01*
X91347000Y-66772323D02*
X88240000Y-66772323D01*
X91371000Y-66732323D02*
X88240000Y-66732323D01*
X91394000Y-66692323D02*
X88240000Y-66692323D01*
X91417000Y-66652323D02*
X88240000Y-66652323D01*
X91439000Y-66612323D02*
X88240000Y-66612323D01*
X91461000Y-66572323D02*
X88240000Y-66572323D01*
X91483000Y-66532323D02*
X88240000Y-66532323D01*
X91504000Y-66492323D02*
X88240000Y-66492323D01*
X91524000Y-66452323D02*
X88240000Y-66452323D01*
X91544000Y-66412323D02*
X88240000Y-66412323D01*
X91564000Y-66372323D02*
X88240000Y-66372323D01*
X91583000Y-66332323D02*
X88240000Y-66332323D01*
X91602000Y-66292323D02*
X88240000Y-66292323D01*
X91620000Y-66252323D02*
X88240000Y-66252323D01*
X91638000Y-66212323D02*
X88240000Y-66212323D01*
X91656000Y-66172323D02*
X88240000Y-66172323D01*
X91673000Y-66132323D02*
X88240000Y-66132323D01*
X91690000Y-66092323D02*
X88240000Y-66092323D01*
X91706000Y-66052323D02*
X88240000Y-66052323D01*
X91722000Y-66012323D02*
X88240000Y-66012323D01*
X91738000Y-65972323D02*
X88240000Y-65972323D01*
X91753000Y-65932323D02*
X88240000Y-65932323D01*
X91768000Y-65892323D02*
X88240000Y-65892323D01*
X91782000Y-65852323D02*
X88240000Y-65852323D01*
X91797000Y-65812323D02*
X88240000Y-65812323D01*
X91810000Y-65772323D02*
X88240000Y-65772323D01*
X91824000Y-65732323D02*
X88240000Y-65732323D01*
X91837000Y-65692323D02*
X88240000Y-65692323D01*
X91849000Y-65652323D02*
X88240000Y-65652323D01*
X91861000Y-65612323D02*
X88240000Y-65612323D01*
X91873000Y-65572323D02*
X88240000Y-65572323D01*
X91885000Y-65532323D02*
X88240000Y-65532323D01*
X91896000Y-65492323D02*
X88240000Y-65492323D01*
X91907000Y-65452323D02*
X88240000Y-65452323D01*
X91917000Y-65412323D02*
X88240000Y-65412323D01*
X91928000Y-65372323D02*
X82072000Y-65372323D01*
X91937000Y-65332323D02*
X82063000Y-65332323D01*
X91947000Y-65292323D02*
X82053000Y-65292323D01*
X91956000Y-65252323D02*
X82044000Y-65252323D01*
X91965000Y-65212323D02*
X82035000Y-65212323D01*
X91973000Y-65172323D02*
X82027000Y-65172323D01*
X91981000Y-65132323D02*
X82019000Y-65132323D01*
X91989000Y-65092323D02*
X82011000Y-65092323D01*
X91997000Y-65052323D02*
X82003000Y-65052323D01*
X92004000Y-65012323D02*
X81996000Y-65012323D01*
X92011000Y-64972323D02*
X81989000Y-64972323D01*
X92017000Y-64932323D02*
X81983000Y-64932323D01*
X92023000Y-64892323D02*
X81977000Y-64892323D01*
X92029000Y-64852323D02*
X81971000Y-64852323D01*
X92035000Y-64812323D02*
X81965000Y-64812323D01*
X92040000Y-64772323D02*
X81960000Y-64772323D01*
X92045000Y-64732323D02*
X81955000Y-64732323D01*
X92049000Y-64692323D02*
X81951000Y-64692323D01*
X92054000Y-64652323D02*
X81946000Y-64652323D01*
X92057000Y-64612323D02*
X81943000Y-64612323D01*
X92061000Y-64572323D02*
X81939000Y-64572323D01*
X92064000Y-64532323D02*
X81936000Y-64532323D01*
X92067000Y-64492323D02*
X81933000Y-64492323D01*
X92070000Y-64452323D02*
X81930000Y-64452323D01*
X92072000Y-64412323D02*
X81928000Y-64412323D01*
X92074000Y-64372323D02*
X81926000Y-64372323D01*
X92076000Y-64332323D02*
X81924000Y-64332323D01*
X92077000Y-64292323D02*
X81923000Y-64292323D01*
X92079000Y-64212323D02*
X81921000Y-64212323D01*
X92079000Y-64252323D02*
X81921000Y-64252323D01*
X92080000Y-64132323D02*
X81920000Y-64132323D01*
X92080000Y-64172323D02*
X81920000Y-64172323D01*
X92120000Y-64132323D02*
G75*
G02*
X81880000Y-64132323I-5120000J0D01*
G01*
X81880000Y-64132323D02*
G75*
G02*
X92120000Y-64132323I5120000J0D01*
G01*
%TO.C,D7*%
X59935000Y-73455000D02*
X59935000Y-76545000D01*
X59935000Y-73455170D02*
G75*
G02*
X65485000Y-75000000I2560000J-1544830D01*
G01*
X65485000Y-75000000D02*
G75*
G02*
X59935000Y-76544830I-2990000J0D01*
G01*
X64995000Y-75000000D02*
G75*
G02*
X59995000Y-75000000I-2500000J0D01*
G01*
X59995000Y-75000000D02*
G75*
G02*
X64995000Y-75000000I2500000J0D01*
G01*
%TO.C,D3*%
X75500000Y-60340000D02*
X75500000Y-61360000D01*
X75500000Y-67820000D02*
X75500000Y-66800000D01*
X76970000Y-62140000D02*
X74030000Y-62140000D01*
X76970000Y-62260000D02*
X74030000Y-62260000D01*
X76970000Y-62380000D02*
X74030000Y-62380000D01*
X76970000Y-61360000D02*
X74030000Y-61360000D01*
X74030000Y-66800000D01*
X76970000Y-66800000D01*
X76970000Y-61360000D01*
%TO.C,C3*%
X100820000Y-55099000D02*
X100820000Y-53901000D01*
X100860000Y-55362000D02*
X100860000Y-53638000D01*
X100900000Y-55562000D02*
X100900000Y-53438000D01*
X100940000Y-55730000D02*
X100940000Y-53270000D01*
X100980000Y-55877000D02*
X100980000Y-53123000D01*
X101020000Y-56009000D02*
X101020000Y-52991000D01*
X101060000Y-56130000D02*
X101060000Y-52870000D01*
X101100000Y-56242000D02*
X101100000Y-52758000D01*
X101140000Y-56346000D02*
X101140000Y-52654000D01*
X101180000Y-56444000D02*
X101180000Y-52556000D01*
X101220000Y-56537000D02*
X101220000Y-52463000D01*
X101260000Y-56624000D02*
X101260000Y-52376000D01*
X101300000Y-56708000D02*
X101300000Y-52292000D01*
X101340000Y-56788000D02*
X101340000Y-52212000D01*
X101380000Y-56865000D02*
X101380000Y-52135000D01*
X101420000Y-56939000D02*
X101420000Y-52061000D01*
X101460000Y-57010000D02*
X101460000Y-51990000D01*
X101500000Y-57078000D02*
X101500000Y-51922000D01*
X101540000Y-57144000D02*
X101540000Y-51856000D01*
X101580000Y-57208000D02*
X101580000Y-51792000D01*
X101620000Y-57270000D02*
X101620000Y-51730000D01*
X101660000Y-57330000D02*
X101660000Y-51670000D01*
X101700000Y-57388000D02*
X101700000Y-51612000D01*
X101740000Y-57445000D02*
X101740000Y-51555000D01*
X101780000Y-57500000D02*
X101780000Y-51500000D01*
X101820000Y-57553000D02*
X101820000Y-51447000D01*
X101860000Y-57605000D02*
X101860000Y-51395000D01*
X101900000Y-57656000D02*
X101900000Y-51344000D01*
X101940000Y-57705000D02*
X101940000Y-51295000D01*
X101980000Y-57754000D02*
X101980000Y-51246000D01*
X102020000Y-57801000D02*
X102020000Y-51199000D01*
X102060000Y-57847000D02*
X102060000Y-51153000D01*
X102100000Y-57891000D02*
X102100000Y-51109000D01*
X102140000Y-57935000D02*
X102140000Y-51065000D01*
X102180000Y-57978000D02*
X102180000Y-51022000D01*
X102220000Y-58020000D02*
X102220000Y-50980000D01*
X102260000Y-58061000D02*
X102260000Y-50939000D01*
X102300000Y-58101000D02*
X102300000Y-50899000D01*
X102340000Y-58140000D02*
X102340000Y-50860000D01*
X102380000Y-58178000D02*
X102380000Y-50822000D01*
X102420000Y-58216000D02*
X102420000Y-50784000D01*
X102460000Y-58252000D02*
X102460000Y-50748000D01*
X102500000Y-58288000D02*
X102500000Y-50712000D01*
X102540000Y-58323000D02*
X102540000Y-50677000D01*
X102580000Y-58358000D02*
X102580000Y-50642000D01*
X102620000Y-58391000D02*
X102620000Y-50609000D01*
X102660000Y-58424000D02*
X102660000Y-50576000D01*
X102700000Y-58457000D02*
X102700000Y-50543000D01*
X102740000Y-58488000D02*
X102740000Y-50512000D01*
X102780000Y-53260000D02*
X102780000Y-50480000D01*
X102780000Y-58520000D02*
X102780000Y-55740000D01*
X102820000Y-53260000D02*
X102820000Y-50450000D01*
X102820000Y-58550000D02*
X102820000Y-55740000D01*
X102860000Y-53260000D02*
X102860000Y-50420000D01*
X102860000Y-58580000D02*
X102860000Y-55740000D01*
X102900000Y-53260000D02*
X102900000Y-50391000D01*
X102900000Y-58609000D02*
X102900000Y-55740000D01*
X102940000Y-53260000D02*
X102940000Y-50362000D01*
X102940000Y-58638000D02*
X102940000Y-55740000D01*
X102980000Y-53260000D02*
X102980000Y-50334000D01*
X102980000Y-58666000D02*
X102980000Y-55740000D01*
X103020000Y-53260000D02*
X103020000Y-50307000D01*
X103020000Y-58693000D02*
X103020000Y-55740000D01*
X103060000Y-53260000D02*
X103060000Y-50280000D01*
X103060000Y-58720000D02*
X103060000Y-55740000D01*
X103100000Y-53260000D02*
X103100000Y-50253000D01*
X103100000Y-58747000D02*
X103100000Y-55740000D01*
X103140000Y-53260000D02*
X103140000Y-50228000D01*
X103140000Y-58772000D02*
X103140000Y-55740000D01*
X103180000Y-53260000D02*
X103180000Y-50202000D01*
X103180000Y-58798000D02*
X103180000Y-55740000D01*
X103220000Y-53260000D02*
X103220000Y-50177000D01*
X103220000Y-58823000D02*
X103220000Y-55740000D01*
X103260000Y-53260000D02*
X103260000Y-50153000D01*
X103260000Y-58847000D02*
X103260000Y-55740000D01*
X103300000Y-53260000D02*
X103300000Y-50129000D01*
X103300000Y-58871000D02*
X103300000Y-55740000D01*
X103340000Y-53260000D02*
X103340000Y-50106000D01*
X103340000Y-58894000D02*
X103340000Y-55740000D01*
X103380000Y-53260000D02*
X103380000Y-50083000D01*
X103380000Y-58917000D02*
X103380000Y-55740000D01*
X103420000Y-53260000D02*
X103420000Y-50061000D01*
X103420000Y-58939000D02*
X103420000Y-55740000D01*
X103460000Y-53260000D02*
X103460000Y-50039000D01*
X103460000Y-58961000D02*
X103460000Y-55740000D01*
X103500000Y-53260000D02*
X103500000Y-50017000D01*
X103500000Y-58983000D02*
X103500000Y-55740000D01*
X103540000Y-53260000D02*
X103540000Y-49996000D01*
X103540000Y-59004000D02*
X103540000Y-55740000D01*
X103580000Y-53260000D02*
X103580000Y-49976000D01*
X103580000Y-59024000D02*
X103580000Y-55740000D01*
X103620000Y-53260000D02*
X103620000Y-49956000D01*
X103620000Y-59044000D02*
X103620000Y-55740000D01*
X103660000Y-53260000D02*
X103660000Y-49936000D01*
X103660000Y-59064000D02*
X103660000Y-55740000D01*
X103700000Y-53260000D02*
X103700000Y-49917000D01*
X103700000Y-59083000D02*
X103700000Y-55740000D01*
X103740000Y-53260000D02*
X103740000Y-49898000D01*
X103740000Y-59102000D02*
X103740000Y-55740000D01*
X103780000Y-53260000D02*
X103780000Y-49880000D01*
X103780000Y-59120000D02*
X103780000Y-55740000D01*
X103820000Y-53260000D02*
X103820000Y-49862000D01*
X103820000Y-59138000D02*
X103820000Y-55740000D01*
X103860000Y-53260000D02*
X103860000Y-49844000D01*
X103860000Y-59156000D02*
X103860000Y-55740000D01*
X103900000Y-53260000D02*
X103900000Y-49827000D01*
X103900000Y-59173000D02*
X103900000Y-55740000D01*
X103940000Y-53260000D02*
X103940000Y-49810000D01*
X103940000Y-59190000D02*
X103940000Y-55740000D01*
X103980000Y-53260000D02*
X103980000Y-49794000D01*
X103980000Y-59206000D02*
X103980000Y-55740000D01*
X104020000Y-53260000D02*
X104020000Y-49778000D01*
X104020000Y-59222000D02*
X104020000Y-55740000D01*
X104060000Y-53260000D02*
X104060000Y-49762000D01*
X104060000Y-59238000D02*
X104060000Y-55740000D01*
X104100000Y-53260000D02*
X104100000Y-49747000D01*
X104100000Y-59253000D02*
X104100000Y-55740000D01*
X104140000Y-53260000D02*
X104140000Y-49732000D01*
X104140000Y-59268000D02*
X104140000Y-55740000D01*
X104180000Y-53260000D02*
X104180000Y-49718000D01*
X104180000Y-59282000D02*
X104180000Y-55740000D01*
X104220000Y-53260000D02*
X104220000Y-49703000D01*
X104220000Y-59297000D02*
X104220000Y-55740000D01*
X104260000Y-53260000D02*
X104260000Y-49690000D01*
X104260000Y-59310000D02*
X104260000Y-55740000D01*
X104300000Y-53260000D02*
X104300000Y-49676000D01*
X104300000Y-59324000D02*
X104300000Y-55740000D01*
X104340000Y-53260000D02*
X104340000Y-49663000D01*
X104340000Y-59337000D02*
X104340000Y-55740000D01*
X104380000Y-53260000D02*
X104380000Y-49651000D01*
X104380000Y-59349000D02*
X104380000Y-55740000D01*
X104420000Y-53260000D02*
X104420000Y-49639000D01*
X104420000Y-59361000D02*
X104420000Y-55740000D01*
X104460000Y-53260000D02*
X104460000Y-49627000D01*
X104460000Y-59373000D02*
X104460000Y-55740000D01*
X104500000Y-53260000D02*
X104500000Y-49615000D01*
X104500000Y-59385000D02*
X104500000Y-55740000D01*
X104540000Y-53260000D02*
X104540000Y-49604000D01*
X104540000Y-59396000D02*
X104540000Y-55740000D01*
X104580000Y-53260000D02*
X104580000Y-49593000D01*
X104580000Y-59407000D02*
X104580000Y-55740000D01*
X104620000Y-53260000D02*
X104620000Y-49583000D01*
X104620000Y-59417000D02*
X104620000Y-55740000D01*
X104660000Y-53260000D02*
X104660000Y-49572000D01*
X104660000Y-59428000D02*
X104660000Y-55740000D01*
X104700000Y-53260000D02*
X104700000Y-49563000D01*
X104700000Y-59437000D02*
X104700000Y-55740000D01*
X104740000Y-53260000D02*
X104740000Y-49553000D01*
X104740000Y-59447000D02*
X104740000Y-55740000D01*
X104780000Y-53260000D02*
X104780000Y-49544000D01*
X104780000Y-59456000D02*
X104780000Y-55740000D01*
X104820000Y-53260000D02*
X104820000Y-49535000D01*
X104820000Y-59465000D02*
X104820000Y-55740000D01*
X104860000Y-53260000D02*
X104860000Y-49527000D01*
X104860000Y-59473000D02*
X104860000Y-55740000D01*
X104900000Y-53260000D02*
X104900000Y-49519000D01*
X104900000Y-59481000D02*
X104900000Y-55740000D01*
X104940000Y-53260000D02*
X104940000Y-49511000D01*
X104940000Y-59489000D02*
X104940000Y-55740000D01*
X104980000Y-53260000D02*
X104980000Y-49503000D01*
X104980000Y-59497000D02*
X104980000Y-55740000D01*
X105020000Y-53260000D02*
X105020000Y-49496000D01*
X105020000Y-59504000D02*
X105020000Y-55740000D01*
X105060000Y-53260000D02*
X105060000Y-49489000D01*
X105060000Y-59511000D02*
X105060000Y-55740000D01*
X105100000Y-53260000D02*
X105100000Y-49483000D01*
X105100000Y-59517000D02*
X105100000Y-55740000D01*
X105140000Y-53260000D02*
X105140000Y-49477000D01*
X105140000Y-59523000D02*
X105140000Y-55740000D01*
X105180000Y-53260000D02*
X105180000Y-49471000D01*
X105180000Y-59529000D02*
X105180000Y-55740000D01*
X105220000Y-53260000D02*
X105220000Y-49465000D01*
X105220000Y-59535000D02*
X105220000Y-55740000D01*
X105260000Y-59540000D02*
X105260000Y-49460000D01*
X105300000Y-59545000D02*
X105300000Y-49455000D01*
X105340000Y-59549000D02*
X105340000Y-49451000D01*
X105380000Y-59554000D02*
X105380000Y-49446000D01*
X105420000Y-59557000D02*
X105420000Y-49443000D01*
X105460000Y-59561000D02*
X105460000Y-49439000D01*
X105500000Y-59564000D02*
X105500000Y-49436000D01*
X105540000Y-59567000D02*
X105540000Y-49433000D01*
X105580000Y-59570000D02*
X105580000Y-49430000D01*
X105620000Y-59572000D02*
X105620000Y-49428000D01*
X105660000Y-59574000D02*
X105660000Y-49426000D01*
X105700000Y-59576000D02*
X105700000Y-49424000D01*
X105740000Y-59577000D02*
X105740000Y-49423000D01*
X105780000Y-59579000D02*
X105780000Y-49421000D01*
X105820000Y-59579000D02*
X105820000Y-49421000D01*
X105860000Y-59580000D02*
X105860000Y-49420000D01*
X105900000Y-59580000D02*
X105900000Y-49420000D01*
X110879646Y-57875000D02*
X110879646Y-56875000D01*
X111379646Y-57375000D02*
X110379646Y-57375000D01*
X111020000Y-54500000D02*
G75*
G02*
X100780000Y-54500000I-5120000J0D01*
G01*
X100780000Y-54500000D02*
G75*
G02*
X111020000Y-54500000I5120000J0D01*
G01*
%TO.C,D4*%
X81000000Y-75840000D02*
X81000000Y-76860000D01*
X81000000Y-83320000D02*
X81000000Y-82300000D01*
X82470000Y-77640000D02*
X79530000Y-77640000D01*
X82470000Y-77760000D02*
X79530000Y-77760000D01*
X82470000Y-77880000D02*
X79530000Y-77880000D01*
X82470000Y-76860000D02*
X79530000Y-76860000D01*
X79530000Y-82300000D01*
X82470000Y-82300000D01*
X82470000Y-76860000D01*
%TO.C,C1*%
X84530000Y-52130000D02*
X89470000Y-52130000D01*
X84530000Y-52460000D02*
X84530000Y-52130000D01*
X84530000Y-54870000D02*
X84530000Y-54540000D01*
X89470000Y-52130000D02*
X89470000Y-52460000D01*
X89470000Y-54540000D02*
X89470000Y-54870000D01*
X89470000Y-54870000D02*
X84530000Y-54870000D01*
%TO.C,U1*%
X86850000Y-41740000D02*
X97070000Y-41740000D01*
X86850000Y-43120000D02*
X97070000Y-43120000D01*
X86850000Y-46360000D02*
X86850000Y-41740000D01*
X90110000Y-41740000D02*
X90110000Y-43120000D01*
X93810000Y-41740000D02*
X93810000Y-43120000D01*
X97070000Y-41740000D02*
X97070000Y-46360000D01*
X97070000Y-46360000D02*
X86850000Y-46360000D01*
%TO.C,R4*%
X57920000Y-82630000D02*
X57920000Y-82960000D01*
X57920000Y-85370000D02*
X57920000Y-85040000D01*
X64460000Y-82630000D02*
X57920000Y-82630000D01*
X64460000Y-82960000D02*
X64460000Y-82630000D01*
X64460000Y-85040000D02*
X64460000Y-85370000D01*
X64460000Y-85370000D02*
X57920000Y-85370000D01*
%TO.C,D6*%
X95030000Y-65590000D02*
X95030000Y-71030000D01*
X95030000Y-71030000D02*
X95360000Y-71030000D01*
X95360000Y-65590000D02*
X95030000Y-65590000D01*
X97640000Y-65590000D02*
X97970000Y-65590000D01*
X97970000Y-65590000D02*
X97970000Y-71030000D01*
X97970000Y-66370000D02*
X95030000Y-66370000D01*
X97970000Y-66490000D02*
X95030000Y-66490000D01*
X97970000Y-66610000D02*
X95030000Y-66610000D01*
X97970000Y-71030000D02*
X97640000Y-71030000D01*
%TO.C,D2*%
X73000000Y-76840000D02*
X73000000Y-77860000D01*
X73000000Y-84320000D02*
X73000000Y-83300000D01*
X74470000Y-78640000D02*
X71530000Y-78640000D01*
X74470000Y-78760000D02*
X71530000Y-78760000D01*
X74470000Y-78880000D02*
X71530000Y-78880000D01*
X74470000Y-77860000D02*
X71530000Y-77860000D01*
X71530000Y-83300000D01*
X74470000Y-83300000D01*
X74470000Y-77860000D01*
%TO.C,R2*%
X88920000Y-80630000D02*
X88920000Y-80960000D01*
X88920000Y-83370000D02*
X88920000Y-83040000D01*
X95460000Y-80630000D02*
X88920000Y-80630000D01*
X95460000Y-80960000D02*
X95460000Y-80630000D01*
X95460000Y-83040000D02*
X95460000Y-83370000D01*
X95460000Y-83370000D02*
X88920000Y-83370000D01*
%TO.C,R3*%
X53630000Y-44230000D02*
X53630000Y-50770000D01*
X53630000Y-50770000D02*
X53960000Y-50770000D01*
X53960000Y-44230000D02*
X53630000Y-44230000D01*
X56040000Y-44230000D02*
X56370000Y-44230000D01*
X56370000Y-44230000D02*
X56370000Y-50770000D01*
X56370000Y-50770000D02*
X56040000Y-50770000D01*
%TO.C,C4*%
X61380000Y-41380000D02*
X79620000Y-41380000D01*
X61380000Y-52620000D02*
X61380000Y-41380000D01*
X79620000Y-41380000D02*
X79620000Y-52620000D01*
X79620000Y-52620000D02*
X61380000Y-52620000D01*
%TO.C,D5*%
X94030000Y-52090000D02*
X94030000Y-57530000D01*
X94030000Y-57530000D02*
X94360000Y-57530000D01*
X94360000Y-52090000D02*
X94030000Y-52090000D01*
X96640000Y-52090000D02*
X96970000Y-52090000D01*
X96970000Y-52090000D02*
X96970000Y-57530000D01*
X96970000Y-52870000D02*
X94030000Y-52870000D01*
X96970000Y-52990000D02*
X94030000Y-52990000D01*
X96970000Y-53110000D02*
X94030000Y-53110000D01*
X96970000Y-57530000D02*
X96640000Y-57530000D01*
%TD*%
M02*
