M48
; DRILL file {KiCad 9.0.7} date 2026-05-16T09:32:33+0530
; FORMAT={-:-/ absolute / metric / decimal}
; #@! TF.CreationDate,2026-05-16T09:32:33+05:30
; #@! TF.GenerationSoftware,Kicad,Pcbnew,9.0.7
; #@! TF.FileFunction,Plated,1,2,PTH
FMAT,2
METRIC
; #@! TA.AperFunction,Plated,PTH,ComponentDrill
T1C0.800
; #@! TA.AperFunction,Plated,PTH,ComponentDrill
T2C0.900
; #@! TA.AperFunction,Plated,PTH,ComponentDrill
T3C1.000
; #@! TA.AperFunction,Plated,PTH,ComponentDrill
T4C1.100
; #@! TA.AperFunction,Plated,PTH,ComponentDrill
T5C1.200
; #@! TA.AperFunction,Plated,PTH,ComponentDrill
T6C1.300
%
G90
G05
T1
X55.0Y-43.69
X55.0Y-51.31
X57.38Y-84.0
X65.0Y-84.0
X84.5Y-53.5
X88.38Y-76.0
X88.38Y-82.0
X89.5Y-53.5
X96.0Y-76.0
X96.0Y-82.0
T2
X61.225Y-75.0
X63.765Y-75.0
X95.5Y-51.0
X95.5Y-58.62
X96.5Y-64.5
X96.5Y-72.12
T3
X87.0Y-61.632
X87.0Y-66.632
X104.0Y-54.5
X107.8Y-54.5
T4
X67.0Y-58.5
X67.0Y-68.66
X73.0Y-75.5
X73.0Y-85.66
X75.5Y-59.0
X75.5Y-69.16
X81.0Y-74.5
X81.0Y-84.66
X89.42Y-45.0
X91.96Y-45.0
X94.5Y-45.0
T5
X63.0Y-47.0
X78.0Y-47.0
T6
X57.5Y-61.0
X57.5Y-66.0
X106.0Y-70.5
X106.0Y-75.5
M30
